{
	"asset":{
		"generator":"Khronos glTF Blender I/O v5.1.18",
		"version":"2.0"
	},
	"scene":0,
	"scenes":[
		{
			"name":"Scene",
			"nodes":[
				0,
				1,
				2,
				3,
				4,
				5,
				6,
				7,
				8,
				9,
				10,
				11,
				12,
				13,
				14,
				15,
				16,
				17,
				18,
				19,
				20,
				21,
				22,
				23,
				24,
				25,
				26,
				27,
				28,
				29,
				30,
				31,
				32,
				33,
				34,
				35,
				36,
				37,
				38,
				39,
				40,
				41,
				42,
				43,
				44,
				45,
				46,
				47,
				48,
				49,
				50,
				51,
				52,
				53,
				54
			]
		}
	],
	"nodes":[
		{
			"extras":{
				"modelName":"wall.glb"
			},
			"mesh":0,
			"name":"Wall",
			"translation":[
				0,
				2,
				-7.349999904632568
			]
		},
		{
			"extras":{
				"modelName":"wall.glb"
			},
			"mesh":1,
			"name":"Wall.002",
			"rotation":[
				0,
				0.7071068286895752,
				0,
				0.7071067094802856
			],
			"translation":[
				27.65000343322754,
				2,
				-5.000003337860107
			]
		},
		{
			"extras":{
				"modelName":"wall.glb"
			},
			"mesh":2,
			"name":"Wall.003",
			"translation":[
				-5,
				1.999998688697815,
				-7.349999904632568
			]
		},
		{
			"extras":{
				"modelName":"wall.glb"
			},
			"mesh":3,
			"name":"Wall.004",
			"translation":[
				-10,
				1.9999972581863403,
				-7.349999904632568
			]
		},
		{
			"extras":{
				"modelName":"wall.glb"
			},
			"mesh":4,
			"name":"Wall.005",
			"translation":[
				-15,
				1.9999957084655762,
				-7.349999904632568
			]
		},
		{
			"extras":{
				"modelName":"wall.glb"
			},
			"mesh":5,
			"name":"Wall.006",
			"translation":[
				5,
				2,
				-7.349999904632568
			]
		},
		{
			"extras":{
				"modelName":"wall.glb"
			},
			"mesh":6,
			"name":"Wall.007",
			"translation":[
				10,
				2,
				-7.349999904632568
			]
		},
		{
			"extras":{
				"modelName":"wall.glb"
			},
			"mesh":7,
			"name":"Wall.008",
			"translation":[
				15,
				2,
				-7.349999904632568
			]
		},
		{
			"extras":{
				"modelName":"wall.glb"
			},
			"mesh":8,
			"name":"Wall.009",
			"translation":[
				20,
				1.999999761581421,
				-7.349999904632568
			]
		},
		{
			"extras":{
				"modelName":"wall.glb"
			},
			"mesh":9,
			"name":"Wall.010",
			"translation":[
				-20,
				1.9999942779541016,
				-7.349999904632568
			]
		},
		{
			"extras":{
				"modelName":"wall.glb"
			},
			"mesh":10,
			"name":"Wall.011",
			"translation":[
				25,
				2.0000007152557373,
				-7.349999904632568
			]
		},
		{
			"extras":{
				"modelName":"wall.glb"
			},
			"mesh":11,
			"name":"Wall.012",
			"translation":[
				0,
				1.999998688697815,
				7.350000381469727
			]
		},
		{
			"extras":{
				"modelName":"wall.glb"
			},
			"mesh":12,
			"name":"Wall.013",
			"translation":[
				-4.999999523162842,
				1.9999972581863403,
				7.350000381469727
			]
		},
		{
			"extras":{
				"modelName":"wall.glb"
			},
			"mesh":13,
			"name":"Wall.014",
			"translation":[
				-10,
				1.9999958276748657,
				7.350000381469727
			]
		},
		{
			"extras":{
				"modelName":"wall.glb"
			},
			"mesh":14,
			"name":"Wall.015",
			"translation":[
				-15,
				1.9999943971633911,
				7.350000381469727
			]
		},
		{
			"extras":{
				"modelName":"wall.glb"
			},
			"mesh":15,
			"name":"Wall.016",
			"translation":[
				5.000000476837158,
				1.999998688697815,
				7.350000381469727
			]
		},
		{
			"extras":{
				"modelName":"wall.glb"
			},
			"mesh":16,
			"name":"Wall.017",
			"translation":[
				10,
				1.999998688697815,
				7.350000381469727
			]
		},
		{
			"extras":{
				"modelName":"wall.glb"
			},
			"mesh":17,
			"name":"Wall.018",
			"translation":[
				14.999999046325684,
				1.999998688697815,
				7.350000381469727
			]
		},
		{
			"extras":{
				"modelName":"wall.glb"
			},
			"mesh":18,
			"name":"Wall.019",
			"translation":[
				19.999998092651367,
				1.999998688697815,
				7.350000381469727
			]
		},
		{
			"extras":{
				"modelName":"wall.glb"
			},
			"mesh":19,
			"name":"Wall.020",
			"translation":[
				-20.000001907348633,
				1.9999929666519165,
				7.350000381469727
			]
		},
		{
			"extras":{
				"modelName":"wall.glb"
			},
			"mesh":20,
			"name":"Wall.021",
			"translation":[
				24.999998092651367,
				1.9999996423721313,
				7.350000381469727
			]
		},
		{
			"extras":{
				"modelName":"wall.glb"
			},
			"mesh":21,
			"name":"Wall.001",
			"rotation":[
				0,
				0.7071068286895752,
				0,
				0.7071067094802856
			],
			"translation":[
				27.65000343322754,
				1.9999971389770508,
				4.999997615814209
			]
		},
		{
			"extras":{
				"modelName":"wall.glb"
			},
			"mesh":22,
			"name":"Wall.022",
			"translation":[
				0,
				5.999999523162842,
				-7.349999904632568
			]
		},
		{
			"extras":{
				"modelName":"wall.glb"
			},
			"mesh":23,
			"name":"Wall.023",
			"translation":[
				-4.999999523162842,
				5.999998092651367,
				-7.349999904632568
			]
		},
		{
			"extras":{
				"modelName":"wall.glb"
			},
			"mesh":24,
			"name":"Wall.024",
			"translation":[
				-10,
				5.999996662139893,
				-7.349999904632568
			]
		},
		{
			"extras":{
				"modelName":"wall.glb"
			},
			"mesh":25,
			"name":"Wall.025",
			"translation":[
				-15,
				5.999995231628418,
				-7.349999904632568
			]
		},
		{
			"extras":{
				"modelName":"wall.glb"
			},
			"mesh":26,
			"name":"Wall.026",
			"translation":[
				5.000000476837158,
				5.999999523162842,
				-7.349999904632568
			]
		},
		{
			"extras":{
				"modelName":"wall.glb"
			},
			"mesh":27,
			"name":"Wall.027",
			"translation":[
				10,
				5.999999523162842,
				-7.349999904632568
			]
		},
		{
			"extras":{
				"modelName":"wall.glb"
			},
			"mesh":28,
			"name":"Wall.028",
			"translation":[
				15,
				5.999999523162842,
				-7.349999904632568
			]
		},
		{
			"extras":{
				"modelName":"wall.glb"
			},
			"mesh":29,
			"name":"Wall.029",
			"translation":[
				20,
				5.999999046325684,
				-7.349999904632568
			]
		},
		{
			"extras":{
				"modelName":"wall.glb"
			},
			"mesh":30,
			"name":"Wall.030",
			"translation":[
				-20,
				5.999993801116943,
				-7.349999904632568
			]
		},
		{
			"extras":{
				"modelName":"wall.glb"
			},
			"mesh":31,
			"name":"Wall.031",
			"translation":[
				25,
				6,
				-7.349999904632568
			]
		},
		{
			"extras":{
				"modelName":"wall.glb"
			},
			"mesh":32,
			"name":"Wall.032",
			"translation":[
				0,
				5.999999523162842,
				7.350000381469727
			]
		},
		{
			"extras":{
				"modelName":"wall.glb"
			},
			"mesh":33,
			"name":"Wall.033",
			"translation":[
				-4.999999046325684,
				5.999998092651367,
				7.350000381469727
			]
		},
		{
			"extras":{
				"modelName":"wall.glb"
			},
			"mesh":34,
			"name":"Wall.034",
			"translation":[
				-9.999999046325684,
				5.999996662139893,
				7.350000381469727
			]
		},
		{
			"extras":{
				"modelName":"wall.glb"
			},
			"mesh":35,
			"name":"Wall.035",
			"translation":[
				-14.999999046325684,
				5.999995231628418,
				7.350000381469727
			]
		},
		{
			"extras":{
				"modelName":"wall.glb"
			},
			"mesh":36,
			"name":"Wall.036",
			"translation":[
				5.000000953674316,
				5.999999523162842,
				7.350000381469727
			]
		},
		{
			"extras":{
				"modelName":"wall.glb"
			},
			"mesh":37,
			"name":"Wall.037",
			"translation":[
				10.000000953674316,
				5.999999523162842,
				7.350000381469727
			]
		},
		{
			"extras":{
				"modelName":"wall.glb"
			},
			"mesh":38,
			"name":"Wall.038",
			"translation":[
				15,
				5.999999523162842,
				7.350000381469727
			]
		},
		{
			"extras":{
				"modelName":"wall.glb"
			},
			"mesh":39,
			"name":"Wall.039",
			"translation":[
				19.999998092651367,
				5.999999523162842,
				7.350000381469727
			]
		},
		{
			"extras":{
				"modelName":"wall.glb"
			},
			"mesh":40,
			"name":"Wall.040",
			"translation":[
				-20.000001907348633,
				5.999993801116943,
				7.350000381469727
			]
		},
		{
			"extras":{
				"modelName":"wall.glb"
			},
			"mesh":41,
			"name":"Wall.041",
			"translation":[
				24.999998092651367,
				6.000000476837158,
				7.350000381469727
			]
		},
		{
			"extras":{
				"modelName":"wall.glb"
			},
			"mesh":42,
			"name":"Wall.042",
			"rotation":[
				0,
				0.7071068286895752,
				0,
				0.7071067094802856
			],
			"translation":[
				27.65000343322754,
				6,
				-5.000003337860107
			]
		},
		{
			"extras":{
				"modelName":"wall.glb"
			},
			"mesh":43,
			"name":"Wall.043",
			"rotation":[
				0,
				0.7071068286895752,
				0,
				0.7071067094802856
			],
			"translation":[
				27.65000343322754,
				5.999997138977051,
				4.999997615814209
			]
		},
		{
			"extras":{
				"modelName":"wall.glb"
			},
			"mesh":44,
			"name":"Wall.044",
			"rotation":[
				0,
				0.7071068286895752,
				0,
				0.7071067094802856
			],
			"translation":[
				27.65000343322754,
				1.9999985694885254,
				-2.86102294921875e-06
			]
		},
		{
			"extras":{
				"modelName":"wall.glb"
			},
			"mesh":45,
			"name":"Wall.045",
			"rotation":[
				0,
				0.7071068286895752,
				0,
				0.7071067094802856
			],
			"translation":[
				27.65000343322754,
				5.999998569488525,
				-2.86102294921875e-06
			]
		},
		{
			"extras":{
				"modelName":"wall.glb"
			},
			"mesh":46,
			"name":"Wall.046",
			"rotation":[
				0,
				0.7071068286895752,
				0,
				0.7071067094802856
			],
			"translation":[
				-22.649995803833008,
				1.9999923706054688,
				-5.000003814697266
			]
		},
		{
			"extras":{
				"modelName":"wall.glb"
			},
			"mesh":47,
			"name":"Wall.047",
			"rotation":[
				0,
				0.7071068286895752,
				0,
				0.7071067094802856
			],
			"translation":[
				-22.649999618530273,
				1.999991536140442,
				4.999995708465576
			]
		},
		{
			"extras":{
				"modelName":"wall.glb"
			},
			"mesh":48,
			"name":"Wall.048",
			"rotation":[
				0,
				0.7071068286895752,
				0,
				0.7071067094802856
			],
			"translation":[
				-22.649995803833008,
				5.999992370605469,
				-5.000003337860107
			]
		},
		{
			"extras":{
				"modelName":"wall.glb"
			},
			"mesh":49,
			"name":"Wall.049",
			"rotation":[
				0,
				0.7071068286895752,
				0,
				0.7071067094802856
			],
			"translation":[
				-22.64999771118164,
				5.999992370605469,
				4.999996185302734
			]
		},
		{
			"extras":{
				"modelName":"wall.glb"
			},
			"mesh":50,
			"name":"Wall.050",
			"rotation":[
				0,
				0.7071068286895752,
				0,
				0.7071067094802856
			],
			"translation":[
				-22.649995803833008,
				5.999990940093994,
				-2.7418136596679688e-06
			]
		},
		{
			"extras":{
				"modelName":"stairs.glb"
			},
			"mesh":51,
			"name":"Stairs",
			"translation":[
				-26.312904357910156,
				1.31995689868927,
				2.9802322387695312e-05
			]
		},
		{
			"extras":{
				"modelName":"light_source.glb"
			},
			"mesh":52,
			"name":"Light source",
			"translation":[
				0,
				6,
				0
			]
		},
		{
			"extras":{
				"modelName":"plane.glb"
			},
			"mesh":53,
			"name":"Cube.030",
			"translation":[
				2.5000011920928955,
				8.14999771118164,
				-2.86102294921875e-06
			]
		},
		{
			"extras":{
				"modelName":"plane.glb"
			},
			"mesh":54,
			"name":"Cube.001",
			"translation":[
				2.500002145767212,
				-0.1500110626220703,
				-3.814697265625e-06
			]
		}
	],
	"materials":[
		{
			"doubleSided":true,
			"name":"DefaultMaterial.052",
			"pbrMetallicRoughness":{
				"metallicFactor":0,
				"roughnessFactor":0.5
			}
		},
		{
			"doubleSided":true,
			"name":"DefaultMaterial.054",
			"pbrMetallicRoughness":{
				"metallicFactor":0,
				"roughnessFactor":0.5
			}
		},
		{
			"doubleSided":true,
			"name":"DefaultMaterial",
			"pbrMetallicRoughness":{
				"metallicFactor":0,
				"roughnessFactor":0.5
			}
		},
		{
			"doubleSided":true,
			"name":"DefaultMaterial.002",
			"pbrMetallicRoughness":{
				"metallicFactor":0,
				"roughnessFactor":0.5
			}
		}
	],
	"meshes":[
		{
			"name":"Cube.005",
			"primitives":[
				{
					"attributes":{
						"POSITION":0,
						"NORMAL":1,
						"TEXCOORD_0":2,
						"COLOR_0":3
					},
					"indices":4,
					"material":0
				}
			]
		},
		{
			"name":"Cube.007",
			"primitives":[
				{
					"attributes":{
						"POSITION":5,
						"NORMAL":6,
						"TEXCOORD_0":7,
						"COLOR_0":8
					},
					"indices":4,
					"material":0
				}
			]
		},
		{
			"name":"Cube.008",
			"primitives":[
				{
					"attributes":{
						"POSITION":9,
						"NORMAL":10,
						"TEXCOORD_0":11,
						"COLOR_0":12
					},
					"indices":4,
					"material":0
				}
			]
		},
		{
			"name":"Cube.009",
			"primitives":[
				{
					"attributes":{
						"POSITION":13,
						"NORMAL":14,
						"TEXCOORD_0":15,
						"COLOR_0":16
					},
					"indices":4,
					"material":0
				}
			]
		},
		{
			"name":"Cube.010",
			"primitives":[
				{
					"attributes":{
						"POSITION":17,
						"NORMAL":18,
						"TEXCOORD_0":19,
						"COLOR_0":20
					},
					"indices":4,
					"material":0
				}
			]
		},
		{
			"name":"Cube.011",
			"primitives":[
				{
					"attributes":{
						"POSITION":21,
						"NORMAL":22,
						"TEXCOORD_0":23,
						"COLOR_0":24
					},
					"indices":4,
					"material":0
				}
			]
		},
		{
			"name":"Cube.012",
			"primitives":[
				{
					"attributes":{
						"POSITION":25,
						"NORMAL":26,
						"TEXCOORD_0":27,
						"COLOR_0":28
					},
					"indices":4,
					"material":0
				}
			]
		},
		{
			"name":"Cube.013",
			"primitives":[
				{
					"attributes":{
						"POSITION":29,
						"NORMAL":30,
						"TEXCOORD_0":31,
						"COLOR_0":32
					},
					"indices":4,
					"material":0
				}
			]
		},
		{
			"name":"Cube.014",
			"primitives":[
				{
					"attributes":{
						"POSITION":33,
						"NORMAL":34,
						"TEXCOORD_0":35,
						"COLOR_0":36
					},
					"indices":4,
					"material":0
				}
			]
		},
		{
			"name":"Cube.016",
			"primitives":[
				{
					"attributes":{
						"POSITION":37,
						"NORMAL":38,
						"TEXCOORD_0":39,
						"COLOR_0":40
					},
					"indices":4,
					"material":0
				}
			]
		},
		{
			"name":"Cube.017",
			"primitives":[
				{
					"attributes":{
						"POSITION":41,
						"NORMAL":42,
						"TEXCOORD_0":43,
						"COLOR_0":44
					},
					"indices":4,
					"material":0
				}
			]
		},
		{
			"name":"Cube.018",
			"primitives":[
				{
					"attributes":{
						"POSITION":45,
						"NORMAL":46,
						"TEXCOORD_0":47,
						"COLOR_0":48
					},
					"indices":4,
					"material":0
				}
			]
		},
		{
			"name":"Cube.023",
			"primitives":[
				{
					"attributes":{
						"POSITION":49,
						"NORMAL":50,
						"TEXCOORD_0":51,
						"COLOR_0":52
					},
					"indices":4,
					"material":0
				}
			]
		},
		{
			"name":"Cube.024",
			"primitives":[
				{
					"attributes":{
						"POSITION":53,
						"NORMAL":54,
						"TEXCOORD_0":55,
						"COLOR_0":56
					},
					"indices":4,
					"material":0
				}
			]
		},
		{
			"name":"Cube.025",
			"primitives":[
				{
					"attributes":{
						"POSITION":57,
						"NORMAL":58,
						"TEXCOORD_0":59,
						"COLOR_0":60
					},
					"indices":4,
					"material":0
				}
			]
		},
		{
			"name":"Cube.026",
			"primitives":[
				{
					"attributes":{
						"POSITION":61,
						"NORMAL":62,
						"TEXCOORD_0":63,
						"COLOR_0":64
					},
					"indices":4,
					"material":0
				}
			]
		},
		{
			"name":"Cube.027",
			"primitives":[
				{
					"attributes":{
						"POSITION":65,
						"NORMAL":66,
						"TEXCOORD_0":67,
						"COLOR_0":68
					},
					"indices":4,
					"material":0
				}
			]
		},
		{
			"name":"Cube.028",
			"primitives":[
				{
					"attributes":{
						"POSITION":69,
						"NORMAL":70,
						"TEXCOORD_0":71,
						"COLOR_0":72
					},
					"indices":4,
					"material":0
				}
			]
		},
		{
			"name":"Cube.029",
			"primitives":[
				{
					"attributes":{
						"POSITION":73,
						"NORMAL":74,
						"TEXCOORD_0":75,
						"COLOR_0":76
					},
					"indices":4,
					"material":0
				}
			]
		},
		{
			"name":"Cube.030",
			"primitives":[
				{
					"attributes":{
						"POSITION":77,
						"NORMAL":78,
						"TEXCOORD_0":79,
						"COLOR_0":80
					},
					"indices":4,
					"material":0
				}
			]
		},
		{
			"name":"Cube.031",
			"primitives":[
				{
					"attributes":{
						"POSITION":81,
						"NORMAL":82,
						"TEXCOORD_0":83,
						"COLOR_0":84
					},
					"indices":4,
					"material":0
				}
			]
		},
		{
			"name":"Cube.032",
			"primitives":[
				{
					"attributes":{
						"POSITION":85,
						"NORMAL":86,
						"TEXCOORD_0":87,
						"COLOR_0":88
					},
					"indices":4,
					"material":0
				}
			]
		},
		{
			"name":"Cube.033",
			"primitives":[
				{
					"attributes":{
						"POSITION":89,
						"NORMAL":90,
						"TEXCOORD_0":91,
						"COLOR_0":92
					},
					"indices":4,
					"material":0
				}
			]
		},
		{
			"name":"Cube.034",
			"primitives":[
				{
					"attributes":{
						"POSITION":93,
						"NORMAL":94,
						"TEXCOORD_0":95,
						"COLOR_0":96
					},
					"indices":4,
					"material":0
				}
			]
		},
		{
			"name":"Cube.035",
			"primitives":[
				{
					"attributes":{
						"POSITION":97,
						"NORMAL":98,
						"TEXCOORD_0":99,
						"COLOR_0":100
					},
					"indices":4,
					"material":0
				}
			]
		},
		{
			"name":"Cube.036",
			"primitives":[
				{
					"attributes":{
						"POSITION":101,
						"NORMAL":102,
						"TEXCOORD_0":103,
						"COLOR_0":104
					},
					"indices":4,
					"material":0
				}
			]
		},
		{
			"name":"Cube.037",
			"primitives":[
				{
					"attributes":{
						"POSITION":105,
						"NORMAL":106,
						"TEXCOORD_0":107,
						"COLOR_0":108
					},
					"indices":4,
					"material":0
				}
			]
		},
		{
			"name":"Cube.038",
			"primitives":[
				{
					"attributes":{
						"POSITION":109,
						"NORMAL":110,
						"TEXCOORD_0":111,
						"COLOR_0":112
					},
					"indices":4,
					"material":0
				}
			]
		},
		{
			"name":"Cube.039",
			"primitives":[
				{
					"attributes":{
						"POSITION":113,
						"NORMAL":114,
						"TEXCOORD_0":115,
						"COLOR_0":116
					},
					"indices":4,
					"material":0
				}
			]
		},
		{
			"name":"Cube.040",
			"primitives":[
				{
					"attributes":{
						"POSITION":117,
						"NORMAL":118,
						"TEXCOORD_0":119,
						"COLOR_0":120
					},
					"indices":4,
					"material":0
				}
			]
		},
		{
			"name":"Cube.041",
			"primitives":[
				{
					"attributes":{
						"POSITION":121,
						"NORMAL":122,
						"TEXCOORD_0":123,
						"COLOR_0":124
					},
					"indices":4,
					"material":0
				}
			]
		},
		{
			"name":"Cube.042",
			"primitives":[
				{
					"attributes":{
						"POSITION":125,
						"NORMAL":126,
						"TEXCOORD_0":127,
						"COLOR_0":128
					},
					"indices":4,
					"material":0
				}
			]
		},
		{
			"name":"Cube.043",
			"primitives":[
				{
					"attributes":{
						"POSITION":129,
						"NORMAL":130,
						"TEXCOORD_0":131,
						"COLOR_0":132
					},
					"indices":4,
					"material":0
				}
			]
		},
		{
			"name":"Cube.044",
			"primitives":[
				{
					"attributes":{
						"POSITION":133,
						"NORMAL":134,
						"TEXCOORD_0":135,
						"COLOR_0":136
					},
					"indices":4,
					"material":0
				}
			]
		},
		{
			"name":"Cube.046",
			"primitives":[
				{
					"attributes":{
						"POSITION":137,
						"NORMAL":138,
						"TEXCOORD_0":139,
						"COLOR_0":140
					},
					"indices":4,
					"material":0
				}
			]
		},
		{
			"name":"Cube.047",
			"primitives":[
				{
					"attributes":{
						"POSITION":141,
						"NORMAL":142,
						"TEXCOORD_0":143,
						"COLOR_0":144
					},
					"indices":4,
					"material":0
				}
			]
		},
		{
			"name":"Cube.048",
			"primitives":[
				{
					"attributes":{
						"POSITION":145,
						"NORMAL":146,
						"TEXCOORD_0":147,
						"COLOR_0":148
					},
					"indices":4,
					"material":0
				}
			]
		},
		{
			"name":"Cube.049",
			"primitives":[
				{
					"attributes":{
						"POSITION":149,
						"NORMAL":150,
						"TEXCOORD_0":151,
						"COLOR_0":152
					},
					"indices":4,
					"material":0
				}
			]
		},
		{
			"name":"Cube.050",
			"primitives":[
				{
					"attributes":{
						"POSITION":153,
						"NORMAL":154,
						"TEXCOORD_0":155,
						"COLOR_0":156
					},
					"indices":4,
					"material":0
				}
			]
		},
		{
			"name":"Cube.051",
			"primitives":[
				{
					"attributes":{
						"POSITION":157,
						"NORMAL":158,
						"TEXCOORD_0":159,
						"COLOR_0":160
					},
					"indices":4,
					"material":0
				}
			]
		},
		{
			"name":"Cube.052",
			"primitives":[
				{
					"attributes":{
						"POSITION":161,
						"NORMAL":162,
						"TEXCOORD_0":163,
						"COLOR_0":164
					},
					"indices":4,
					"material":0
				}
			]
		},
		{
			"name":"Cube.053",
			"primitives":[
				{
					"attributes":{
						"POSITION":165,
						"NORMAL":166,
						"TEXCOORD_0":167,
						"COLOR_0":168
					},
					"indices":4,
					"material":0
				}
			]
		},
		{
			"name":"Cube.054",
			"primitives":[
				{
					"attributes":{
						"POSITION":169,
						"NORMAL":170,
						"TEXCOORD_0":171,
						"COLOR_0":172
					},
					"indices":4,
					"material":0
				}
			]
		},
		{
			"name":"Cube.055",
			"primitives":[
				{
					"attributes":{
						"POSITION":173,
						"NORMAL":174,
						"TEXCOORD_0":175,
						"COLOR_0":176
					},
					"indices":4,
					"material":0
				}
			]
		},
		{
			"name":"Cube.056",
			"primitives":[
				{
					"attributes":{
						"POSITION":177,
						"NORMAL":178,
						"TEXCOORD_0":179,
						"COLOR_0":180
					},
					"indices":4,
					"material":0
				}
			]
		},
		{
			"name":"Cube.057",
			"primitives":[
				{
					"attributes":{
						"POSITION":181,
						"NORMAL":182,
						"TEXCOORD_0":183,
						"COLOR_0":184
					},
					"indices":4,
					"material":0
				}
			]
		},
		{
			"name":"Cube.058",
			"primitives":[
				{
					"attributes":{
						"POSITION":185,
						"NORMAL":186,
						"TEXCOORD_0":187,
						"COLOR_0":188
					},
					"indices":4,
					"material":0
				}
			]
		},
		{
			"name":"Cube.059",
			"primitives":[
				{
					"attributes":{
						"POSITION":189,
						"NORMAL":190,
						"TEXCOORD_0":191,
						"COLOR_0":192
					},
					"indices":4,
					"material":0
				}
			]
		},
		{
			"name":"Cube.060",
			"primitives":[
				{
					"attributes":{
						"POSITION":193,
						"NORMAL":194,
						"TEXCOORD_0":195,
						"COLOR_0":196
					},
					"indices":4,
					"material":0
				}
			]
		},
		{
			"name":"Cube.061",
			"primitives":[
				{
					"attributes":{
						"POSITION":197,
						"NORMAL":198,
						"TEXCOORD_0":199,
						"COLOR_0":200
					},
					"indices":4,
					"material":0
				}
			]
		},
		{
			"name":"Cube.068",
			"primitives":[
				{
					"attributes":{
						"POSITION":201,
						"NORMAL":202,
						"TEXCOORD_0":203,
						"COLOR_0":204
					},
					"indices":4,
					"material":0
				}
			]
		},
		{
			"name":"Cube.069",
			"primitives":[
				{
					"attributes":{
						"POSITION":205,
						"NORMAL":206,
						"TEXCOORD_0":207,
						"COLOR_0":208
					},
					"indices":209,
					"material":1
				}
			]
		},
		{
			"name":"Cube.002",
			"primitives":[
				{
					"attributes":{
						"POSITION":210,
						"NORMAL":211,
						"TEXCOORD_0":212,
						"COLOR_0":213
					},
					"indices":214,
					"material":2
				}
			]
		},
		{
			"name":"Cube.003",
			"primitives":[
				{
					"attributes":{
						"POSITION":215,
						"NORMAL":216,
						"TEXCOORD_0":217,
						"COLOR_0":218
					},
					"indices":219,
					"material":3
				}
			]
		},
		{
			"name":"Cube.004",
			"primitives":[
				{
					"attributes":{
						"POSITION":220,
						"NORMAL":221,
						"TEXCOORD_0":222,
						"COLOR_0":223
					},
					"indices":219,
					"material":3
				}
			]
		}
	],
	"accessors":[
		{
			"bufferView":0,
			"componentType":5126,
			"count":24,
			"max":[
				2.5,
				2,
				0.1499958038330078
			],
			"min":[
				-2.5,
				-2.0000009536743164,
				-0.15000343322753906
			],
			"type":"VEC3"
		},
		{
			"bufferView":1,
			"componentType":5126,
			"count":24,
			"type":"VEC3"
		},
		{
			"bufferView":2,
			"componentType":5126,
			"count":24,
			"type":"VEC2"
		},
		{
			"bufferView":3,
			"componentType":5126,
			"count":24,
			"type":"VEC3"
		},
		{
			"bufferView":4,
			"componentType":5123,
			"count":36,
			"type":"SCALAR"
		},
		{
			"bufferView":5,
			"componentType":5126,
			"count":24,
			"max":[
				2.5,
				2,
				0.1499958038330078
			],
			"min":[
				-2.5,
				-2.0000009536743164,
				-0.15000343322753906
			],
			"type":"VEC3"
		},
		{
			"bufferView":6,
			"componentType":5126,
			"count":24,
			"type":"VEC3"
		},
		{
			"bufferView":7,
			"componentType":5126,
			"count":24,
			"type":"VEC2"
		},
		{
			"bufferView":8,
			"componentType":5126,
			"count":24,
			"type":"VEC3"
		},
		{
			"bufferView":9,
			"componentType":5126,
			"count":24,
			"max":[
				2.5,
				2,
				0.1499958038330078
			],
			"min":[
				-2.5,
				-2.0000009536743164,
				-0.15000343322753906
			],
			"type":"VEC3"
		},
		{
			"bufferView":10,
			"componentType":5126,
			"count":24,
			"type":"VEC3"
		},
		{
			"bufferView":11,
			"componentType":5126,
			"count":24,
			"type":"VEC2"
		},
		{
			"bufferView":12,
			"componentType":5126,
			"count":24,
			"type":"VEC3"
		},
		{
			"bufferView":13,
			"componentType":5126,
			"count":24,
			"max":[
				2.5,
				2,
				0.1499958038330078
			],
			"min":[
				-2.5,
				-2.0000009536743164,
				-0.15000343322753906
			],
			"type":"VEC3"
		},
		{
			"bufferView":14,
			"componentType":5126,
			"count":24,
			"type":"VEC3"
		},
		{
			"bufferView":15,
			"componentType":5126,
			"count":24,
			"type":"VEC2"
		},
		{
			"bufferView":16,
			"componentType":5126,
			"count":24,
			"type":"VEC3"
		},
		{
			"bufferView":17,
			"componentType":5126,
			"count":24,
			"max":[
				2.5,
				2,
				0.1499958038330078
			],
			"min":[
				-2.5,
				-2.0000009536743164,
				-0.15000343322753906
			],
			"type":"VEC3"
		},
		{
			"bufferView":18,
			"componentType":5126,
			"count":24,
			"type":"VEC3"
		},
		{
			"bufferView":19,
			"componentType":5126,
			"count":24,
			"type":"VEC2"
		},
		{
			"bufferView":20,
			"componentType":5126,
			"count":24,
			"type":"VEC3"
		},
		{
			"bufferView":21,
			"componentType":5126,
			"count":24,
			"max":[
				2.5,
				2,
				0.1499958038330078
			],
			"min":[
				-2.5,
				-2.0000009536743164,
				-0.15000343322753906
			],
			"type":"VEC3"
		},
		{
			"bufferView":22,
			"componentType":5126,
			"count":24,
			"type":"VEC3"
		},
		{
			"bufferView":23,
			"componentType":5126,
			"count":24,
			"type":"VEC2"
		},
		{
			"bufferView":24,
			"componentType":5126,
			"count":24,
			"type":"VEC3"
		},
		{
			"bufferView":25,
			"componentType":5126,
			"count":24,
			"max":[
				2.5,
				2,
				0.1499958038330078
			],
			"min":[
				-2.5,
				-2.0000009536743164,
				-0.15000343322753906
			],
			"type":"VEC3"
		},
		{
			"bufferView":26,
			"componentType":5126,
			"count":24,
			"type":"VEC3"
		},
		{
			"bufferView":27,
			"componentType":5126,
			"count":24,
			"type":"VEC2"
		},
		{
			"bufferView":28,
			"componentType":5126,
			"count":24,
			"type":"VEC3"
		},
		{
			"bufferView":29,
			"componentType":5126,
			"count":24,
			"max":[
				2.5,
				2,
				0.1499958038330078
			],
			"min":[
				-2.5,
				-2.0000009536743164,
				-0.15000343322753906
			],
			"type":"VEC3"
		},
		{
			"bufferView":30,
			"componentType":5126,
			"count":24,
			"type":"VEC3"
		},
		{
			"bufferView":31,
			"componentType":5126,
			"count":24,
			"type":"VEC2"
		},
		{
			"bufferView":32,
			"componentType":5126,
			"count":24,
			"type":"VEC3"
		},
		{
			"bufferView":33,
			"componentType":5126,
			"count":24,
			"max":[
				2.5,
				2,
				0.1499958038330078
			],
			"min":[
				-2.5,
				-2.0000009536743164,
				-0.15000343322753906
			],
			"type":"VEC3"
		},
		{
			"bufferView":34,
			"componentType":5126,
			"count":24,
			"type":"VEC3"
		},
		{
			"bufferView":35,
			"componentType":5126,
			"count":24,
			"type":"VEC2"
		},
		{
			"bufferView":36,
			"componentType":5126,
			"count":24,
			"type":"VEC3"
		},
		{
			"bufferView":37,
			"componentType":5126,
			"count":24,
			"max":[
				2.5,
				2,
				0.1499958038330078
			],
			"min":[
				-2.5,
				-2.0000009536743164,
				-0.15000343322753906
			],
			"type":"VEC3"
		},
		{
			"bufferView":38,
			"componentType":5126,
			"count":24,
			"type":"VEC3"
		},
		{
			"bufferView":39,
			"componentType":5126,
			"count":24,
			"type":"VEC2"
		},
		{
			"bufferView":40,
			"componentType":5126,
			"count":24,
			"type":"VEC3"
		},
		{
			"bufferView":41,
			"componentType":5126,
			"count":24,
			"max":[
				2.5,
				2,
				0.1499958038330078
			],
			"min":[
				-2.5,
				-2.0000009536743164,
				-0.15000343322753906
			],
			"type":"VEC3"
		},
		{
			"bufferView":42,
			"componentType":5126,
			"count":24,
			"type":"VEC3"
		},
		{
			"bufferView":43,
			"componentType":5126,
			"count":24,
			"type":"VEC2"
		},
		{
			"bufferView":44,
			"componentType":5126,
			"count":24,
			"type":"VEC3"
		},
		{
			"bufferView":45,
			"componentType":5126,
			"count":24,
			"max":[
				2.5,
				2,
				0.1499958038330078
			],
			"min":[
				-2.5,
				-2.0000009536743164,
				-0.15000343322753906
			],
			"type":"VEC3"
		},
		{
			"bufferView":46,
			"componentType":5126,
			"count":24,
			"type":"VEC3"
		},
		{
			"bufferView":47,
			"componentType":5126,
			"count":24,
			"type":"VEC2"
		},
		{
			"bufferView":48,
			"componentType":5126,
			"count":24,
			"type":"VEC3"
		},
		{
			"bufferView":49,
			"componentType":5126,
			"count":24,
			"max":[
				2.5,
				2,
				0.1499958038330078
			],
			"min":[
				-2.5,
				-2.0000009536743164,
				-0.15000343322753906
			],
			"type":"VEC3"
		},
		{
			"bufferView":50,
			"componentType":5126,
			"count":24,
			"type":"VEC3"
		},
		{
			"bufferView":51,
			"componentType":5126,
			"count":24,
			"type":"VEC2"
		},
		{
			"bufferView":52,
			"componentType":5126,
			"count":24,
			"type":"VEC3"
		},
		{
			"bufferView":53,
			"componentType":5126,
			"count":24,
			"max":[
				2.5,
				2,
				0.1499958038330078
			],
			"min":[
				-2.5,
				-2.0000009536743164,
				-0.15000343322753906
			],
			"type":"VEC3"
		},
		{
			"bufferView":54,
			"componentType":5126,
			"count":24,
			"type":"VEC3"
		},
		{
			"bufferView":55,
			"componentType":5126,
			"count":24,
			"type":"VEC2"
		},
		{
			"bufferView":56,
			"componentType":5126,
			"count":24,
			"type":"VEC3"
		},
		{
			"bufferView":57,
			"componentType":5126,
			"count":24,
			"max":[
				2.5,
				2,
				0.1499958038330078
			],
			"min":[
				-2.5,
				-2.0000009536743164,
				-0.15000343322753906
			],
			"type":"VEC3"
		},
		{
			"bufferView":58,
			"componentType":5126,
			"count":24,
			"type":"VEC3"
		},
		{
			"bufferView":59,
			"componentType":5126,
			"count":24,
			"type":"VEC2"
		},
		{
			"bufferView":60,
			"componentType":5126,
			"count":24,
			"type":"VEC3"
		},
		{
			"bufferView":61,
			"componentType":5126,
			"count":24,
			"max":[
				2.5,
				2,
				0.1499958038330078
			],
			"min":[
				-2.5,
				-2.0000009536743164,
				-0.15000343322753906
			],
			"type":"VEC3"
		},
		{
			"bufferView":62,
			"componentType":5126,
			"count":24,
			"type":"VEC3"
		},
		{
			"bufferView":63,
			"componentType":5126,
			"count":24,
			"type":"VEC2"
		},
		{
			"bufferView":64,
			"componentType":5126,
			"count":24,
			"type":"VEC3"
		},
		{
			"bufferView":65,
			"componentType":5126,
			"count":24,
			"max":[
				2.5,
				2,
				0.1499958038330078
			],
			"min":[
				-2.5,
				-2.0000009536743164,
				-0.15000343322753906
			],
			"type":"VEC3"
		},
		{
			"bufferView":66,
			"componentType":5126,
			"count":24,
			"type":"VEC3"
		},
		{
			"bufferView":67,
			"componentType":5126,
			"count":24,
			"type":"VEC2"
		},
		{
			"bufferView":68,
			"componentType":5126,
			"count":24,
			"type":"VEC3"
		},
		{
			"bufferView":69,
			"componentType":5126,
			"count":24,
			"max":[
				2.5,
				2,
				0.1499958038330078
			],
			"min":[
				-2.5,
				-2.0000009536743164,
				-0.15000343322753906
			],
			"type":"VEC3"
		},
		{
			"bufferView":70,
			"componentType":5126,
			"count":24,
			"type":"VEC3"
		},
		{
			"bufferView":71,
			"componentType":5126,
			"count":24,
			"type":"VEC2"
		},
		{
			"bufferView":72,
			"componentType":5126,
			"count":24,
			"type":"VEC3"
		},
		{
			"bufferView":73,
			"componentType":5126,
			"count":24,
			"max":[
				2.5,
				2,
				0.1499958038330078
			],
			"min":[
				-2.5,
				-2.0000009536743164,
				-0.15000343322753906
			],
			"type":"VEC3"
		},
		{
			"bufferView":74,
			"componentType":5126,
			"count":24,
			"type":"VEC3"
		},
		{
			"bufferView":75,
			"componentType":5126,
			"count":24,
			"type":"VEC2"
		},
		{
			"bufferView":76,
			"componentType":5126,
			"count":24,
			"type":"VEC3"
		},
		{
			"bufferView":77,
			"componentType":5126,
			"count":24,
			"max":[
				2.5,
				2,
				0.1499958038330078
			],
			"min":[
				-2.5,
				-2.0000009536743164,
				-0.15000343322753906
			],
			"type":"VEC3"
		},
		{
			"bufferView":78,
			"componentType":5126,
			"count":24,
			"type":"VEC3"
		},
		{
			"bufferView":79,
			"componentType":5126,
			"count":24,
			"type":"VEC2"
		},
		{
			"bufferView":80,
			"componentType":5126,
			"count":24,
			"type":"VEC3"
		},
		{
			"bufferView":81,
			"componentType":5126,
			"count":24,
			"max":[
				2.5,
				2,
				0.1499958038330078
			],
			"min":[
				-2.5,
				-2.0000009536743164,
				-0.15000343322753906
			],
			"type":"VEC3"
		},
		{
			"bufferView":82,
			"componentType":5126,
			"count":24,
			"type":"VEC3"
		},
		{
			"bufferView":83,
			"componentType":5126,
			"count":24,
			"type":"VEC2"
		},
		{
			"bufferView":84,
			"componentType":5126,
			"count":24,
			"type":"VEC3"
		},
		{
			"bufferView":85,
			"componentType":5126,
			"count":24,
			"max":[
				2.5,
				2,
				0.1499958038330078
			],
			"min":[
				-2.5,
				-2.0000009536743164,
				-0.15000343322753906
			],
			"type":"VEC3"
		},
		{
			"bufferView":86,
			"componentType":5126,
			"count":24,
			"type":"VEC3"
		},
		{
			"bufferView":87,
			"componentType":5126,
			"count":24,
			"type":"VEC2"
		},
		{
			"bufferView":88,
			"componentType":5126,
			"count":24,
			"type":"VEC3"
		},
		{
			"bufferView":89,
			"componentType":5126,
			"count":24,
			"max":[
				2.5,
				2,
				0.1499958038330078
			],
			"min":[
				-2.5,
				-2.0000009536743164,
				-0.15000343322753906
			],
			"type":"VEC3"
		},
		{
			"bufferView":90,
			"componentType":5126,
			"count":24,
			"type":"VEC3"
		},
		{
			"bufferView":91,
			"componentType":5126,
			"count":24,
			"type":"VEC2"
		},
		{
			"bufferView":92,
			"componentType":5126,
			"count":24,
			"type":"VEC3"
		},
		{
			"bufferView":93,
			"componentType":5126,
			"count":24,
			"max":[
				2.5,
				2,
				0.1499958038330078
			],
			"min":[
				-2.5,
				-2.0000009536743164,
				-0.15000343322753906
			],
			"type":"VEC3"
		},
		{
			"bufferView":94,
			"componentType":5126,
			"count":24,
			"type":"VEC3"
		},
		{
			"bufferView":95,
			"componentType":5126,
			"count":24,
			"type":"VEC2"
		},
		{
			"bufferView":96,
			"componentType":5126,
			"count":24,
			"type":"VEC3"
		},
		{
			"bufferView":97,
			"componentType":5126,
			"count":24,
			"max":[
				2.5,
				2,
				0.1499958038330078
			],
			"min":[
				-2.5,
				-2.0000009536743164,
				-0.15000343322753906
			],
			"type":"VEC3"
		},
		{
			"bufferView":98,
			"componentType":5126,
			"count":24,
			"type":"VEC3"
		},
		{
			"bufferView":99,
			"componentType":5126,
			"count":24,
			"type":"VEC2"
		},
		{
			"bufferView":100,
			"componentType":5126,
			"count":24,
			"type":"VEC3"
		},
		{
			"bufferView":101,
			"componentType":5126,
			"count":24,
			"max":[
				2.5,
				2,
				0.1499958038330078
			],
			"min":[
				-2.5,
				-2.0000009536743164,
				-0.15000343322753906
			],
			"type":"VEC3"
		},
		{
			"bufferView":102,
			"componentType":5126,
			"count":24,
			"type":"VEC3"
		},
		{
			"bufferView":103,
			"componentType":5126,
			"count":24,
			"type":"VEC2"
		},
		{
			"bufferView":104,
			"componentType":5126,
			"count":24,
			"type":"VEC3"
		},
		{
			"bufferView":105,
			"componentType":5126,
			"count":24,
			"max":[
				2.5,
				2,
				0.1499958038330078
			],
			"min":[
				-2.5,
				-2.0000009536743164,
				-0.15000343322753906
			],
			"type":"VEC3"
		},
		{
			"bufferView":106,
			"componentType":5126,
			"count":24,
			"type":"VEC3"
		},
		{
			"bufferView":107,
			"componentType":5126,
			"count":24,
			"type":"VEC2"
		},
		{
			"bufferView":108,
			"componentType":5126,
			"count":24,
			"type":"VEC3"
		},
		{
			"bufferView":109,
			"componentType":5126,
			"count":24,
			"max":[
				2.5,
				2,
				0.1499958038330078
			],
			"min":[
				-2.5,
				-2.0000009536743164,
				-0.15000343322753906
			],
			"type":"VEC3"
		},
		{
			"bufferView":110,
			"componentType":5126,
			"count":24,
			"type":"VEC3"
		},
		{
			"bufferView":111,
			"componentType":5126,
			"count":24,
			"type":"VEC2"
		},
		{
			"bufferView":112,
			"componentType":5126,
			"count":24,
			"type":"VEC3"
		},
		{
			"bufferView":113,
			"componentType":5126,
			"count":24,
			"max":[
				2.5,
				2,
				0.1499958038330078
			],
			"min":[
				-2.5,
				-2.0000009536743164,
				-0.15000343322753906
			],
			"type":"VEC3"
		},
		{
			"bufferView":114,
			"componentType":5126,
			"count":24,
			"type":"VEC3"
		},
		{
			"bufferView":115,
			"componentType":5126,
			"count":24,
			"type":"VEC2"
		},
		{
			"bufferView":116,
			"componentType":5126,
			"count":24,
			"type":"VEC3"
		},
		{
			"bufferView":117,
			"componentType":5126,
			"count":24,
			"max":[
				2.5,
				2,
				0.1499958038330078
			],
			"min":[
				-2.5,
				-2.0000009536743164,
				-0.15000343322753906
			],
			"type":"VEC3"
		},
		{
			"bufferView":118,
			"componentType":5126,
			"count":24,
			"type":"VEC3"
		},
		{
			"bufferView":119,
			"componentType":5126,
			"count":24,
			"type":"VEC2"
		},
		{
			"bufferView":120,
			"componentType":5126,
			"count":24,
			"type":"VEC3"
		},
		{
			"bufferView":121,
			"componentType":5126,
			"count":24,
			"max":[
				2.5,
				2,
				0.1499958038330078
			],
			"min":[
				-2.5,
				-2.0000009536743164,
				-0.15000343322753906
			],
			"type":"VEC3"
		},
		{
			"bufferView":122,
			"componentType":5126,
			"count":24,
			"type":"VEC3"
		},
		{
			"bufferView":123,
			"componentType":5126,
			"count":24,
			"type":"VEC2"
		},
		{
			"bufferView":124,
			"componentType":5126,
			"count":24,
			"type":"VEC3"
		},
		{
			"bufferView":125,
			"componentType":5126,
			"count":24,
			"max":[
				2.5,
				2,
				0.1499958038330078
			],
			"min":[
				-2.5,
				-2.0000009536743164,
				-0.15000343322753906
			],
			"type":"VEC3"
		},
		{
			"bufferView":126,
			"componentType":5126,
			"count":24,
			"type":"VEC3"
		},
		{
			"bufferView":127,
			"componentType":5126,
			"count":24,
			"type":"VEC2"
		},
		{
			"bufferView":128,
			"componentType":5126,
			"count":24,
			"type":"VEC3"
		},
		{
			"bufferView":129,
			"componentType":5126,
			"count":24,
			"max":[
				2.5,
				2,
				0.1499958038330078
			],
			"min":[
				-2.5,
				-2.0000009536743164,
				-0.15000343322753906
			],
			"type":"VEC3"
		},
		{
			"bufferView":130,
			"componentType":5126,
			"count":24,
			"type":"VEC3"
		},
		{
			"bufferView":131,
			"componentType":5126,
			"count":24,
			"type":"VEC2"
		},
		{
			"bufferView":132,
			"componentType":5126,
			"count":24,
			"type":"VEC3"
		},
		{
			"bufferView":133,
			"componentType":5126,
			"count":24,
			"max":[
				2.5,
				2,
				0.1499958038330078
			],
			"min":[
				-2.5,
				-2.0000009536743164,
				-0.15000343322753906
			],
			"type":"VEC3"
		},
		{
			"bufferView":134,
			"componentType":5126,
			"count":24,
			"type":"VEC3"
		},
		{
			"bufferView":135,
			"componentType":5126,
			"count":24,
			"type":"VEC2"
		},
		{
			"bufferView":136,
			"componentType":5126,
			"count":24,
			"type":"VEC3"
		},
		{
			"bufferView":137,
			"componentType":5126,
			"count":24,
			"max":[
				2.5,
				2,
				0.1499958038330078
			],
			"min":[
				-2.5,
				-2.0000009536743164,
				-0.15000343322753906
			],
			"type":"VEC3"
		},
		{
			"bufferView":138,
			"componentType":5126,
			"count":24,
			"type":"VEC3"
		},
		{
			"bufferView":139,
			"componentType":5126,
			"count":24,
			"type":"VEC2"
		},
		{
			"bufferView":140,
			"componentType":5126,
			"count":24,
			"type":"VEC3"
		},
		{
			"bufferView":141,
			"componentType":5126,
			"count":24,
			"max":[
				2.5,
				2,
				0.1499958038330078
			],
			"min":[
				-2.5,
				-2.0000009536743164,
				-0.15000343322753906
			],
			"type":"VEC3"
		},
		{
			"bufferView":142,
			"componentType":5126,
			"count":24,
			"type":"VEC3"
		},
		{
			"bufferView":143,
			"componentType":5126,
			"count":24,
			"type":"VEC2"
		},
		{
			"bufferView":144,
			"componentType":5126,
			"count":24,
			"type":"VEC3"
		},
		{
			"bufferView":145,
			"componentType":5126,
			"count":24,
			"max":[
				2.5,
				2,
				0.1499958038330078
			],
			"min":[
				-2.5,
				-2.0000009536743164,
				-0.15000343322753906
			],
			"type":"VEC3"
		},
		{
			"bufferView":146,
			"componentType":5126,
			"count":24,
			"type":"VEC3"
		},
		{
			"bufferView":147,
			"componentType":5126,
			"count":24,
			"type":"VEC2"
		},
		{
			"bufferView":148,
			"componentType":5126,
			"count":24,
			"type":"VEC3"
		},
		{
			"bufferView":149,
			"componentType":5126,
			"count":24,
			"max":[
				2.5,
				2,
				0.1499958038330078
			],
			"min":[
				-2.5,
				-2.0000009536743164,
				-0.15000343322753906
			],
			"type":"VEC3"
		},
		{
			"bufferView":150,
			"componentType":5126,
			"count":24,
			"type":"VEC3"
		},
		{
			"bufferView":151,
			"componentType":5126,
			"count":24,
			"type":"VEC2"
		},
		{
			"bufferView":152,
			"componentType":5126,
			"count":24,
			"type":"VEC3"
		},
		{
			"bufferView":153,
			"componentType":5126,
			"count":24,
			"max":[
				2.5,
				2,
				0.1499958038330078
			],
			"min":[
				-2.5,
				-2.0000009536743164,
				-0.15000343322753906
			],
			"type":"VEC3"
		},
		{
			"bufferView":154,
			"componentType":5126,
			"count":24,
			"type":"VEC3"
		},
		{
			"bufferView":155,
			"componentType":5126,
			"count":24,
			"type":"VEC2"
		},
		{
			"bufferView":156,
			"componentType":5126,
			"count":24,
			"type":"VEC3"
		},
		{
			"bufferView":157,
			"componentType":5126,
			"count":24,
			"max":[
				2.5,
				2,
				0.1499958038330078
			],
			"min":[
				-2.5,
				-2.0000009536743164,
				-0.15000343322753906
			],
			"type":"VEC3"
		},
		{
			"bufferView":158,
			"componentType":5126,
			"count":24,
			"type":"VEC3"
		},
		{
			"bufferView":159,
			"componentType":5126,
			"count":24,
			"type":"VEC2"
		},
		{
			"bufferView":160,
			"componentType":5126,
			"count":24,
			"type":"VEC3"
		},
		{
			"bufferView":161,
			"componentType":5126,
			"count":24,
			"max":[
				2.5,
				2,
				0.1499958038330078
			],
			"min":[
				-2.5,
				-2.0000009536743164,
				-0.15000343322753906
			],
			"type":"VEC3"
		},
		{
			"bufferView":162,
			"componentType":5126,
			"count":24,
			"type":"VEC3"
		},
		{
			"bufferView":163,
			"componentType":5126,
			"count":24,
			"type":"VEC2"
		},
		{
			"bufferView":164,
			"componentType":5126,
			"count":24,
			"type":"VEC3"
		},
		{
			"bufferView":165,
			"componentType":5126,
			"count":24,
			"max":[
				2.5,
				2,
				0.1499958038330078
			],
			"min":[
				-2.5,
				-2.0000009536743164,
				-0.15000343322753906
			],
			"type":"VEC3"
		},
		{
			"bufferView":166,
			"componentType":5126,
			"count":24,
			"type":"VEC3"
		},
		{
			"bufferView":167,
			"componentType":5126,
			"count":24,
			"type":"VEC2"
		},
		{
			"bufferView":168,
			"componentType":5126,
			"count":24,
			"type":"VEC3"
		},
		{
			"bufferView":169,
			"componentType":5126,
			"count":24,
			"max":[
				2.5,
				2,
				0.1499958038330078
			],
			"min":[
				-2.5,
				-2.0000009536743164,
				-0.15000343322753906
			],
			"type":"VEC3"
		},
		{
			"bufferView":170,
			"componentType":5126,
			"count":24,
			"type":"VEC3"
		},
		{
			"bufferView":171,
			"componentType":5126,
			"count":24,
			"type":"VEC2"
		},
		{
			"bufferView":172,
			"componentType":5126,
			"count":24,
			"type":"VEC3"
		},
		{
			"bufferView":173,
			"componentType":5126,
			"count":24,
			"max":[
				2.5,
				2,
				0.1499958038330078
			],
			"min":[
				-2.5,
				-2.0000009536743164,
				-0.15000343322753906
			],
			"type":"VEC3"
		},
		{
			"bufferView":174,
			"componentType":5126,
			"count":24,
			"type":"VEC3"
		},
		{
			"bufferView":175,
			"componentType":5126,
			"count":24,
			"type":"VEC2"
		},
		{
			"bufferView":176,
			"componentType":5126,
			"count":24,
			"type":"VEC3"
		},
		{
			"bufferView":177,
			"componentType":5126,
			"count":24,
			"max":[
				2.5,
				2,
				0.1499958038330078
			],
			"min":[
				-2.5,
				-2.0000009536743164,
				-0.15000343322753906
			],
			"type":"VEC3"
		},
		{
			"bufferView":178,
			"componentType":5126,
			"count":24,
			"type":"VEC3"
		},
		{
			"bufferView":179,
			"componentType":5126,
			"count":24,
			"type":"VEC2"
		},
		{
			"bufferView":180,
			"componentType":5126,
			"count":24,
			"type":"VEC3"
		},
		{
			"bufferView":181,
			"componentType":5126,
			"count":24,
			"max":[
				2.5,
				2,
				0.1499958038330078
			],
			"min":[
				-2.5,
				-2.0000009536743164,
				-0.15000343322753906
			],
			"type":"VEC3"
		},
		{
			"bufferView":182,
			"componentType":5126,
			"count":24,
			"type":"VEC3"
		},
		{
			"bufferView":183,
			"componentType":5126,
			"count":24,
			"type":"VEC2"
		},
		{
			"bufferView":184,
			"componentType":5126,
			"count":24,
			"type":"VEC3"
		},
		{
			"bufferView":185,
			"componentType":5126,
			"count":24,
			"max":[
				2.5,
				2,
				0.1499958038330078
			],
			"min":[
				-2.5,
				-2.0000009536743164,
				-0.15000343322753906
			],
			"type":"VEC3"
		},
		{
			"bufferView":186,
			"componentType":5126,
			"count":24,
			"type":"VEC3"
		},
		{
			"bufferView":187,
			"componentType":5126,
			"count":24,
			"type":"VEC2"
		},
		{
			"bufferView":188,
			"componentType":5126,
			"count":24,
			"type":"VEC3"
		},
		{
			"bufferView":189,
			"componentType":5126,
			"count":24,
			"max":[
				2.5,
				2,
				0.1499958038330078
			],
			"min":[
				-2.5,
				-2.0000009536743164,
				-0.15000343322753906
			],
			"type":"VEC3"
		},
		{
			"bufferView":190,
			"componentType":5126,
			"count":24,
			"type":"VEC3"
		},
		{
			"bufferView":191,
			"componentType":5126,
			"count":24,
			"type":"VEC2"
		},
		{
			"bufferView":192,
			"componentType":5126,
			"count":24,
			"type":"VEC3"
		},
		{
			"bufferView":193,
			"componentType":5126,
			"count":24,
			"max":[
				2.5,
				2,
				0.1499958038330078
			],
			"min":[
				-2.5,
				-2.0000009536743164,
				-0.15000343322753906
			],
			"type":"VEC3"
		},
		{
			"bufferView":194,
			"componentType":5126,
			"count":24,
			"type":"VEC3"
		},
		{
			"bufferView":195,
			"componentType":5126,
			"count":24,
			"type":"VEC2"
		},
		{
			"bufferView":196,
			"componentType":5126,
			"count":24,
			"type":"VEC3"
		},
		{
			"bufferView":197,
			"componentType":5126,
			"count":24,
			"max":[
				2.5,
				2,
				0.1499958038330078
			],
			"min":[
				-2.5,
				-2.0000009536743164,
				-0.15000343322753906
			],
			"type":"VEC3"
		},
		{
			"bufferView":198,
			"componentType":5126,
			"count":24,
			"type":"VEC3"
		},
		{
			"bufferView":199,
			"componentType":5126,
			"count":24,
			"type":"VEC2"
		},
		{
			"bufferView":200,
			"componentType":5126,
			"count":24,
			"type":"VEC3"
		},
		{
			"bufferView":201,
			"componentType":5126,
			"count":24,
			"max":[
				2.5,
				2,
				0.1499958038330078
			],
			"min":[
				-2.5,
				-2.0000009536743164,
				-0.15000343322753906
			],
			"type":"VEC3"
		},
		{
			"bufferView":202,
			"componentType":5126,
			"count":24,
			"type":"VEC3"
		},
		{
			"bufferView":203,
			"componentType":5126,
			"count":24,
			"type":"VEC2"
		},
		{
			"bufferView":204,
			"componentType":5126,
			"count":24,
			"type":"VEC3"
		},
		{
			"bufferView":205,
			"componentType":5126,
			"count":480,
			"max":[
				3.5129036903381348,
				1.6800336837768555,
				2.4999656677246094
			],
			"min":[
				-3.4870963096618652,
				-1.3199653625488281,
				-2.5000343322753906
			],
			"type":"VEC3"
		},
		{
			"bufferView":206,
			"componentType":5126,
			"count":480,
			"type":"VEC3"
		},
		{
			"bufferView":207,
			"componentType":5126,
			"count":480,
			"type":"VEC2"
		},
		{
			"bufferView":208,
			"componentType":5126,
			"count":480,
			"type":"VEC3"
		},
		{
			"bufferView":209,
			"componentType":5123,
			"count":720,
			"type":"SCALAR"
		},
		{
			"bufferView":210,
			"componentType":5126,
			"count":48,
			"max":[
				0.25,
				0.43750035762786865,
				0.25
			],
			"min":[
				-0.25,
				-0.31249988079071045,
				-0.25
			],
			"type":"VEC3"
		},
		{
			"bufferView":211,
			"componentType":5126,
			"count":48,
			"type":"VEC3"
		},
		{
			"bufferView":212,
			"componentType":5126,
			"count":48,
			"type":"VEC2"
		},
		{
			"bufferView":213,
			"componentType":5126,
			"count":48,
			"type":"VEC3"
		},
		{
			"bufferView":214,
			"componentType":5123,
			"count":72,
			"type":"SCALAR"
		},
		{
			"bufferView":215,
			"componentType":5126,
			"count":24,
			"max":[
				25.299999237060547,
				0.15000343322753906,
				7.499999523162842
			],
			"min":[
				-25.30000114440918,
				-0.15000534057617188,
				-7.5
			],
			"type":"VEC3"
		},
		{
			"bufferView":216,
			"componentType":5126,
			"count":24,
			"type":"VEC3"
		},
		{
			"bufferView":217,
			"componentType":5126,
			"count":24,
			"type":"VEC2"
		},
		{
			"bufferView":218,
			"componentType":5126,
			"count":24,
			"type":"VEC3"
		},
		{
			"bufferView":219,
			"componentType":5123,
			"count":36,
			"type":"SCALAR"
		},
		{
			"bufferView":220,
			"componentType":5126,
			"count":24,
			"max":[
				25.299999237060547,
				0.15000343322753906,
				7.499999523162842
			],
			"min":[
				-25.30000114440918,
				-0.15000534057617188,
				-7.5
			],
			"type":"VEC3"
		},
		{
			"bufferView":221,
			"componentType":5126,
			"count":24,
			"type":"VEC3"
		},
		{
			"bufferView":222,
			"componentType":5126,
			"count":24,
			"type":"VEC2"
		},
		{
			"bufferView":223,
			"componentType":5126,
			"count":24,
			"type":"VEC3"
		}
	],
	"bufferViews":[
		{
			"buffer":0,
			"byteLength":288,
			"byteOffset":0,
			"target":34962
		},
		{
			"buffer":0,
			"byteLength":288,
			"byteOffset":288,
			"target":34962
		},
		{
			"buffer":0,
			"byteLength":192,
			"byteOffset":576,
			"target":34962
		},
		{
			"buffer":0,
			"byteLength":288,
			"byteOffset":768,
			"target":34962
		},
		{
			"buffer":0,
			"byteLength":72,
			"byteOffset":1056,
			"target":34963
		},
		{
			"buffer":0,
			"byteLength":288,
			"byteOffset":1128,
			"target":34962
		},
		{
			"buffer":0,
			"byteLength":288,
			"byteOffset":1416,
			"target":34962
		},
		{
			"buffer":0,
			"byteLength":192,
			"byteOffset":1704,
			"target":34962
		},
		{
			"buffer":0,
			"byteLength":288,
			"byteOffset":1896,
			"target":34962
		},
		{
			"buffer":0,
			"byteLength":288,
			"byteOffset":2184,
			"target":34962
		},
		{
			"buffer":0,
			"byteLength":288,
			"byteOffset":2472,
			"target":34962
		},
		{
			"buffer":0,
			"byteLength":192,
			"byteOffset":2760,
			"target":34962
		},
		{
			"buffer":0,
			"byteLength":288,
			"byteOffset":2952,
			"target":34962
		},
		{
			"buffer":0,
			"byteLength":288,
			"byteOffset":3240,
			"target":34962
		},
		{
			"buffer":0,
			"byteLength":288,
			"byteOffset":3528,
			"target":34962
		},
		{
			"buffer":0,
			"byteLength":192,
			"byteOffset":3816,
			"target":34962
		},
		{
			"buffer":0,
			"byteLength":288,
			"byteOffset":4008,
			"target":34962
		},
		{
			"buffer":0,
			"byteLength":288,
			"byteOffset":4296,
			"target":34962
		},
		{
			"buffer":0,
			"byteLength":288,
			"byteOffset":4584,
			"target":34962
		},
		{
			"buffer":0,
			"byteLength":192,
			"byteOffset":4872,
			"target":34962
		},
		{
			"buffer":0,
			"byteLength":288,
			"byteOffset":5064,
			"target":34962
		},
		{
			"buffer":0,
			"byteLength":288,
			"byteOffset":5352,
			"target":34962
		},
		{
			"buffer":0,
			"byteLength":288,
			"byteOffset":5640,
			"target":34962
		},
		{
			"buffer":0,
			"byteLength":192,
			"byteOffset":5928,
			"target":34962
		},
		{
			"buffer":0,
			"byteLength":288,
			"byteOffset":6120,
			"target":34962
		},
		{
			"buffer":0,
			"byteLength":288,
			"byteOffset":6408,
			"target":34962
		},
		{
			"buffer":0,
			"byteLength":288,
			"byteOffset":6696,
			"target":34962
		},
		{
			"buffer":0,
			"byteLength":192,
			"byteOffset":6984,
			"target":34962
		},
		{
			"buffer":0,
			"byteLength":288,
			"byteOffset":7176,
			"target":34962
		},
		{
			"buffer":0,
			"byteLength":288,
			"byteOffset":7464,
			"target":34962
		},
		{
			"buffer":0,
			"byteLength":288,
			"byteOffset":7752,
			"target":34962
		},
		{
			"buffer":0,
			"byteLength":192,
			"byteOffset":8040,
			"target":34962
		},
		{
			"buffer":0,
			"byteLength":288,
			"byteOffset":8232,
			"target":34962
		},
		{
			"buffer":0,
			"byteLength":288,
			"byteOffset":8520,
			"target":34962
		},
		{
			"buffer":0,
			"byteLength":288,
			"byteOffset":8808,
			"target":34962
		},
		{
			"buffer":0,
			"byteLength":192,
			"byteOffset":9096,
			"target":34962
		},
		{
			"buffer":0,
			"byteLength":288,
			"byteOffset":9288,
			"target":34962
		},
		{
			"buffer":0,
			"byteLength":288,
			"byteOffset":9576,
			"target":34962
		},
		{
			"buffer":0,
			"byteLength":288,
			"byteOffset":9864,
			"target":34962
		},
		{
			"buffer":0,
			"byteLength":192,
			"byteOffset":10152,
			"target":34962
		},
		{
			"buffer":0,
			"byteLength":288,
			"byteOffset":10344,
			"target":34962
		},
		{
			"buffer":0,
			"byteLength":288,
			"byteOffset":10632,
			"target":34962
		},
		{
			"buffer":0,
			"byteLength":288,
			"byteOffset":10920,
			"target":34962
		},
		{
			"buffer":0,
			"byteLength":192,
			"byteOffset":11208,
			"target":34962
		},
		{
			"buffer":0,
			"byteLength":288,
			"byteOffset":11400,
			"target":34962
		},
		{
			"buffer":0,
			"byteLength":288,
			"byteOffset":11688,
			"target":34962
		},
		{
			"buffer":0,
			"byteLength":288,
			"byteOffset":11976,
			"target":34962
		},
		{
			"buffer":0,
			"byteLength":192,
			"byteOffset":12264,
			"target":34962
		},
		{
			"buffer":0,
			"byteLength":288,
			"byteOffset":12456,
			"target":34962
		},
		{
			"buffer":0,
			"byteLength":288,
			"byteOffset":12744,
			"target":34962
		},
		{
			"buffer":0,
			"byteLength":288,
			"byteOffset":13032,
			"target":34962
		},
		{
			"buffer":0,
			"byteLength":192,
			"byteOffset":13320,
			"target":34962
		},
		{
			"buffer":0,
			"byteLength":288,
			"byteOffset":13512,
			"target":34962
		},
		{
			"buffer":0,
			"byteLength":288,
			"byteOffset":13800,
			"target":34962
		},
		{
			"buffer":0,
			"byteLength":288,
			"byteOffset":14088,
			"target":34962
		},
		{
			"buffer":0,
			"byteLength":192,
			"byteOffset":14376,
			"target":34962
		},
		{
			"buffer":0,
			"byteLength":288,
			"byteOffset":14568,
			"target":34962
		},
		{
			"buffer":0,
			"byteLength":288,
			"byteOffset":14856,
			"target":34962
		},
		{
			"buffer":0,
			"byteLength":288,
			"byteOffset":15144,
			"target":34962
		},
		{
			"buffer":0,
			"byteLength":192,
			"byteOffset":15432,
			"target":34962
		},
		{
			"buffer":0,
			"byteLength":288,
			"byteOffset":15624,
			"target":34962
		},
		{
			"buffer":0,
			"byteLength":288,
			"byteOffset":15912,
			"target":34962
		},
		{
			"buffer":0,
			"byteLength":288,
			"byteOffset":16200,
			"target":34962
		},
		{
			"buffer":0,
			"byteLength":192,
			"byteOffset":16488,
			"target":34962
		},
		{
			"buffer":0,
			"byteLength":288,
			"byteOffset":16680,
			"target":34962
		},
		{
			"buffer":0,
			"byteLength":288,
			"byteOffset":16968,
			"target":34962
		},
		{
			"buffer":0,
			"byteLength":288,
			"byteOffset":17256,
			"target":34962
		},
		{
			"buffer":0,
			"byteLength":192,
			"byteOffset":17544,
			"target":34962
		},
		{
			"buffer":0,
			"byteLength":288,
			"byteOffset":17736,
			"target":34962
		},
		{
			"buffer":0,
			"byteLength":288,
			"byteOffset":18024,
			"target":34962
		},
		{
			"buffer":0,
			"byteLength":288,
			"byteOffset":18312,
			"target":34962
		},
		{
			"buffer":0,
			"byteLength":192,
			"byteOffset":18600,
			"target":34962
		},
		{
			"buffer":0,
			"byteLength":288,
			"byteOffset":18792,
			"target":34962
		},
		{
			"buffer":0,
			"byteLength":288,
			"byteOffset":19080,
			"target":34962
		},
		{
			"buffer":0,
			"byteLength":288,
			"byteOffset":19368,
			"target":34962
		},
		{
			"buffer":0,
			"byteLength":192,
			"byteOffset":19656,
			"target":34962
		},
		{
			"buffer":0,
			"byteLength":288,
			"byteOffset":19848,
			"target":34962
		},
		{
			"buffer":0,
			"byteLength":288,
			"byteOffset":20136,
			"target":34962
		},
		{
			"buffer":0,
			"byteLength":288,
			"byteOffset":20424,
			"target":34962
		},
		{
			"buffer":0,
			"byteLength":192,
			"byteOffset":20712,
			"target":34962
		},
		{
			"buffer":0,
			"byteLength":288,
			"byteOffset":20904,
			"target":34962
		},
		{
			"buffer":0,
			"byteLength":288,
			"byteOffset":21192,
			"target":34962
		},
		{
			"buffer":0,
			"byteLength":288,
			"byteOffset":21480,
			"target":34962
		},
		{
			"buffer":0,
			"byteLength":192,
			"byteOffset":21768,
			"target":34962
		},
		{
			"buffer":0,
			"byteLength":288,
			"byteOffset":21960,
			"target":34962
		},
		{
			"buffer":0,
			"byteLength":288,
			"byteOffset":22248,
			"target":34962
		},
		{
			"buffer":0,
			"byteLength":288,
			"byteOffset":22536,
			"target":34962
		},
		{
			"buffer":0,
			"byteLength":192,
			"byteOffset":22824,
			"target":34962
		},
		{
			"buffer":0,
			"byteLength":288,
			"byteOffset":23016,
			"target":34962
		},
		{
			"buffer":0,
			"byteLength":288,
			"byteOffset":23304,
			"target":34962
		},
		{
			"buffer":0,
			"byteLength":288,
			"byteOffset":23592,
			"target":34962
		},
		{
			"buffer":0,
			"byteLength":192,
			"byteOffset":23880,
			"target":34962
		},
		{
			"buffer":0,
			"byteLength":288,
			"byteOffset":24072,
			"target":34962
		},
		{
			"buffer":0,
			"byteLength":288,
			"byteOffset":24360,
			"target":34962
		},
		{
			"buffer":0,
			"byteLength":288,
			"byteOffset":24648,
			"target":34962
		},
		{
			"buffer":0,
			"byteLength":192,
			"byteOffset":24936,
			"target":34962
		},
		{
			"buffer":0,
			"byteLength":288,
			"byteOffset":25128,
			"target":34962
		},
		{
			"buffer":0,
			"byteLength":288,
			"byteOffset":25416,
			"target":34962
		},
		{
			"buffer":0,
			"byteLength":288,
			"byteOffset":25704,
			"target":34962
		},
		{
			"buffer":0,
			"byteLength":192,
			"byteOffset":25992,
			"target":34962
		},
		{
			"buffer":0,
			"byteLength":288,
			"byteOffset":26184,
			"target":34962
		},
		{
			"buffer":0,
			"byteLength":288,
			"byteOffset":26472,
			"target":34962
		},
		{
			"buffer":0,
			"byteLength":288,
			"byteOffset":26760,
			"target":34962
		},
		{
			"buffer":0,
			"byteLength":192,
			"byteOffset":27048,
			"target":34962
		},
		{
			"buffer":0,
			"byteLength":288,
			"byteOffset":27240,
			"target":34962
		},
		{
			"buffer":0,
			"byteLength":288,
			"byteOffset":27528,
			"target":34962
		},
		{
			"buffer":0,
			"byteLength":288,
			"byteOffset":27816,
			"target":34962
		},
		{
			"buffer":0,
			"byteLength":192,
			"byteOffset":28104,
			"target":34962
		},
		{
			"buffer":0,
			"byteLength":288,
			"byteOffset":28296,
			"target":34962
		},
		{
			"buffer":0,
			"byteLength":288,
			"byteOffset":28584,
			"target":34962
		},
		{
			"buffer":0,
			"byteLength":288,
			"byteOffset":28872,
			"target":34962
		},
		{
			"buffer":0,
			"byteLength":192,
			"byteOffset":29160,
			"target":34962
		},
		{
			"buffer":0,
			"byteLength":288,
			"byteOffset":29352,
			"target":34962
		},
		{
			"buffer":0,
			"byteLength":288,
			"byteOffset":29640,
			"target":34962
		},
		{
			"buffer":0,
			"byteLength":288,
			"byteOffset":29928,
			"target":34962
		},
		{
			"buffer":0,
			"byteLength":192,
			"byteOffset":30216,
			"target":34962
		},
		{
			"buffer":0,
			"byteLength":288,
			"byteOffset":30408,
			"target":34962
		},
		{
			"buffer":0,
			"byteLength":288,
			"byteOffset":30696,
			"target":34962
		},
		{
			"buffer":0,
			"byteLength":288,
			"byteOffset":30984,
			"target":34962
		},
		{
			"buffer":0,
			"byteLength":192,
			"byteOffset":31272,
			"target":34962
		},
		{
			"buffer":0,
			"byteLength":288,
			"byteOffset":31464,
			"target":34962
		},
		{
			"buffer":0,
			"byteLength":288,
			"byteOffset":31752,
			"target":34962
		},
		{
			"buffer":0,
			"byteLength":288,
			"byteOffset":32040,
			"target":34962
		},
		{
			"buffer":0,
			"byteLength":192,
			"byteOffset":32328,
			"target":34962
		},
		{
			"buffer":0,
			"byteLength":288,
			"byteOffset":32520,
			"target":34962
		},
		{
			"buffer":0,
			"byteLength":288,
			"byteOffset":32808,
			"target":34962
		},
		{
			"buffer":0,
			"byteLength":288,
			"byteOffset":33096,
			"target":34962
		},
		{
			"buffer":0,
			"byteLength":192,
			"byteOffset":33384,
			"target":34962
		},
		{
			"buffer":0,
			"byteLength":288,
			"byteOffset":33576,
			"target":34962
		},
		{
			"buffer":0,
			"byteLength":288,
			"byteOffset":33864,
			"target":34962
		},
		{
			"buffer":0,
			"byteLength":288,
			"byteOffset":34152,
			"target":34962
		},
		{
			"buffer":0,
			"byteLength":192,
			"byteOffset":34440,
			"target":34962
		},
		{
			"buffer":0,
			"byteLength":288,
			"byteOffset":34632,
			"target":34962
		},
		{
			"buffer":0,
			"byteLength":288,
			"byteOffset":34920,
			"target":34962
		},
		{
			"buffer":0,
			"byteLength":288,
			"byteOffset":35208,
			"target":34962
		},
		{
			"buffer":0,
			"byteLength":192,
			"byteOffset":35496,
			"target":34962
		},
		{
			"buffer":0,
			"byteLength":288,
			"byteOffset":35688,
			"target":34962
		},
		{
			"buffer":0,
			"byteLength":288,
			"byteOffset":35976,
			"target":34962
		},
		{
			"buffer":0,
			"byteLength":288,
			"byteOffset":36264,
			"target":34962
		},
		{
			"buffer":0,
			"byteLength":192,
			"byteOffset":36552,
			"target":34962
		},
		{
			"buffer":0,
			"byteLength":288,
			"byteOffset":36744,
			"target":34962
		},
		{
			"buffer":0,
			"byteLength":288,
			"byteOffset":37032,
			"target":34962
		},
		{
			"buffer":0,
			"byteLength":288,
			"byteOffset":37320,
			"target":34962
		},
		{
			"buffer":0,
			"byteLength":192,
			"byteOffset":37608,
			"target":34962
		},
		{
			"buffer":0,
			"byteLength":288,
			"byteOffset":37800,
			"target":34962
		},
		{
			"buffer":0,
			"byteLength":288,
			"byteOffset":38088,
			"target":34962
		},
		{
			"buffer":0,
			"byteLength":288,
			"byteOffset":38376,
			"target":34962
		},
		{
			"buffer":0,
			"byteLength":192,
			"byteOffset":38664,
			"target":34962
		},
		{
			"buffer":0,
			"byteLength":288,
			"byteOffset":38856,
			"target":34962
		},
		{
			"buffer":0,
			"byteLength":288,
			"byteOffset":39144,
			"target":34962
		},
		{
			"buffer":0,
			"byteLength":288,
			"byteOffset":39432,
			"target":34962
		},
		{
			"buffer":0,
			"byteLength":192,
			"byteOffset":39720,
			"target":34962
		},
		{
			"buffer":0,
			"byteLength":288,
			"byteOffset":39912,
			"target":34962
		},
		{
			"buffer":0,
			"byteLength":288,
			"byteOffset":40200,
			"target":34962
		},
		{
			"buffer":0,
			"byteLength":288,
			"byteOffset":40488,
			"target":34962
		},
		{
			"buffer":0,
			"byteLength":192,
			"byteOffset":40776,
			"target":34962
		},
		{
			"buffer":0,
			"byteLength":288,
			"byteOffset":40968,
			"target":34962
		},
		{
			"buffer":0,
			"byteLength":288,
			"byteOffset":41256,
			"target":34962
		},
		{
			"buffer":0,
			"byteLength":288,
			"byteOffset":41544,
			"target":34962
		},
		{
			"buffer":0,
			"byteLength":192,
			"byteOffset":41832,
			"target":34962
		},
		{
			"buffer":0,
			"byteLength":288,
			"byteOffset":42024,
			"target":34962
		},
		{
			"buffer":0,
			"byteLength":288,
			"byteOffset":42312,
			"target":34962
		},
		{
			"buffer":0,
			"byteLength":288,
			"byteOffset":42600,
			"target":34962
		},
		{
			"buffer":0,
			"byteLength":192,
			"byteOffset":42888,
			"target":34962
		},
		{
			"buffer":0,
			"byteLength":288,
			"byteOffset":43080,
			"target":34962
		},
		{
			"buffer":0,
			"byteLength":288,
			"byteOffset":43368,
			"target":34962
		},
		{
			"buffer":0,
			"byteLength":288,
			"byteOffset":43656,
			"target":34962
		},
		{
			"buffer":0,
			"byteLength":192,
			"byteOffset":43944,
			"target":34962
		},
		{
			"buffer":0,
			"byteLength":288,
			"byteOffset":44136,
			"target":34962
		},
		{
			"buffer":0,
			"byteLength":288,
			"byteOffset":44424,
			"target":34962
		},
		{
			"buffer":0,
			"byteLength":288,
			"byteOffset":44712,
			"target":34962
		},
		{
			"buffer":0,
			"byteLength":192,
			"byteOffset":45000,
			"target":34962
		},
		{
			"buffer":0,
			"byteLength":288,
			"byteOffset":45192,
			"target":34962
		},
		{
			"buffer":0,
			"byteLength":288,
			"byteOffset":45480,
			"target":34962
		},
		{
			"buffer":0,
			"byteLength":288,
			"byteOffset":45768,
			"target":34962
		},
		{
			"buffer":0,
			"byteLength":192,
			"byteOffset":46056,
			"target":34962
		},
		{
			"buffer":0,
			"byteLength":288,
			"byteOffset":46248,
			"target":34962
		},
		{
			"buffer":0,
			"byteLength":288,
			"byteOffset":46536,
			"target":34962
		},
		{
			"buffer":0,
			"byteLength":288,
			"byteOffset":46824,
			"target":34962
		},
		{
			"buffer":0,
			"byteLength":192,
			"byteOffset":47112,
			"target":34962
		},
		{
			"buffer":0,
			"byteLength":288,
			"byteOffset":47304,
			"target":34962
		},
		{
			"buffer":0,
			"byteLength":288,
			"byteOffset":47592,
			"target":34962
		},
		{
			"buffer":0,
			"byteLength":288,
			"byteOffset":47880,
			"target":34962
		},
		{
			"buffer":0,
			"byteLength":192,
			"byteOffset":48168,
			"target":34962
		},
		{
			"buffer":0,
			"byteLength":288,
			"byteOffset":48360,
			"target":34962
		},
		{
			"buffer":0,
			"byteLength":288,
			"byteOffset":48648,
			"target":34962
		},
		{
			"buffer":0,
			"byteLength":288,
			"byteOffset":48936,
			"target":34962
		},
		{
			"buffer":0,
			"byteLength":192,
			"byteOffset":49224,
			"target":34962
		},
		{
			"buffer":0,
			"byteLength":288,
			"byteOffset":49416,
			"target":34962
		},
		{
			"buffer":0,
			"byteLength":288,
			"byteOffset":49704,
			"target":34962
		},
		{
			"buffer":0,
			"byteLength":288,
			"byteOffset":49992,
			"target":34962
		},
		{
			"buffer":0,
			"byteLength":192,
			"byteOffset":50280,
			"target":34962
		},
		{
			"buffer":0,
			"byteLength":288,
			"byteOffset":50472,
			"target":34962
		},
		{
			"buffer":0,
			"byteLength":288,
			"byteOffset":50760,
			"target":34962
		},
		{
			"buffer":0,
			"byteLength":288,
			"byteOffset":51048,
			"target":34962
		},
		{
			"buffer":0,
			"byteLength":192,
			"byteOffset":51336,
			"target":34962
		},
		{
			"buffer":0,
			"byteLength":288,
			"byteOffset":51528,
			"target":34962
		},
		{
			"buffer":0,
			"byteLength":288,
			"byteOffset":51816,
			"target":34962
		},
		{
			"buffer":0,
			"byteLength":288,
			"byteOffset":52104,
			"target":34962
		},
		{
			"buffer":0,
			"byteLength":192,
			"byteOffset":52392,
			"target":34962
		},
		{
			"buffer":0,
			"byteLength":288,
			"byteOffset":52584,
			"target":34962
		},
		{
			"buffer":0,
			"byteLength":288,
			"byteOffset":52872,
			"target":34962
		},
		{
			"buffer":0,
			"byteLength":288,
			"byteOffset":53160,
			"target":34962
		},
		{
			"buffer":0,
			"byteLength":192,
			"byteOffset":53448,
			"target":34962
		},
		{
			"buffer":0,
			"byteLength":288,
			"byteOffset":53640,
			"target":34962
		},
		{
			"buffer":0,
			"byteLength":5760,
			"byteOffset":53928,
			"target":34962
		},
		{
			"buffer":0,
			"byteLength":5760,
			"byteOffset":59688,
			"target":34962
		},
		{
			"buffer":0,
			"byteLength":3840,
			"byteOffset":65448,
			"target":34962
		},
		{
			"buffer":0,
			"byteLength":5760,
			"byteOffset":69288,
			"target":34962
		},
		{
			"buffer":0,
			"byteLength":1440,
			"byteOffset":75048,
			"target":34963
		},
		{
			"buffer":0,
			"byteLength":576,
			"byteOffset":76488,
			"target":34962
		},
		{
			"buffer":0,
			"byteLength":576,
			"byteOffset":77064,
			"target":34962
		},
		{
			"buffer":0,
			"byteLength":384,
			"byteOffset":77640,
			"target":34962
		},
		{
			"buffer":0,
			"byteLength":576,
			"byteOffset":78024,
			"target":34962
		},
		{
			"buffer":0,
			"byteLength":144,
			"byteOffset":78600,
			"target":34963
		},
		{
			"buffer":0,
			"byteLength":288,
			"byteOffset":78744,
			"target":34962
		},
		{
			"buffer":0,
			"byteLength":288,
			"byteOffset":79032,
			"target":34962
		},
		{
			"buffer":0,
			"byteLength":192,
			"byteOffset":79320,
			"target":34962
		},
		{
			"buffer":0,
			"byteLength":288,
			"byteOffset":79512,
			"target":34962
		},
		{
			"buffer":0,
			"byteLength":72,
			"byteOffset":79800,
			"target":34963
		},
		{
			"buffer":0,
			"byteLength":288,
			"byteOffset":79872,
			"target":34962
		},
		{
			"buffer":0,
			"byteLength":288,
			"byteOffset":80160,
			"target":34962
		},
		{
			"buffer":0,
			"byteLength":192,
			"byteOffset":80448,
			"target":34962
		},
		{
			"buffer":0,
			"byteLength":288,
			"byteOffset":80640,
			"target":34962
		}
	],
	"buffers":[
		{
			"byteLength":80928,
			"uri":"corridor.bin"
		}
	]
}
