{
	"asset":{
		"generator":"Khronos glTF Blender I/O v5.1.18",
		"version":"2.0"
	},
	"scene":0,
	"scenes":[
		{
			"name":"Scene",
			"nodes":[
				56
			]
		}
	],
	"nodes":[
		{
			"mesh":0,
			"name":"Cube",
			"translation":[
				13.94564151763916,
				-0.721153736114502,
				5.051994323730469
			]
		},
		{
			"mesh":1,
			"name":"Cube.001",
			"translation":[
				25,
				0,
				0
			]
		},
		{
			"mesh":2,
			"name":"Cube.002"
		},
		{
			"mesh":3,
			"name":"Cube.003"
		},
		{
			"mesh":4,
			"name":"Cube.004"
		},
		{
			"mesh":5,
			"name":"Cube.005"
		},
		{
			"mesh":6,
			"name":"Cube.006"
		},
		{
			"mesh":7,
			"name":"Cube.007",
			"translation":[
				25,
				0,
				0
			]
		},
		{
			"mesh":8,
			"name":"Cube.008",
			"translation":[
				25,
				0,
				0
			]
		},
		{
			"mesh":9,
			"name":"Cube.009",
			"translation":[
				25,
				0,
				0
			]
		},
		{
			"mesh":10,
			"name":"Cube.010",
			"translation":[
				25,
				0,
				0
			]
		},
		{
			"mesh":11,
			"name":"Cube.011",
			"translation":[
				5.000001907348633,
				0,
				0
			]
		},
		{
			"mesh":12,
			"name":"Cube.012",
			"translation":[
				5.000002384185791,
				0,
				0
			]
		},
		{
			"mesh":13,
			"name":"Cube.013",
			"translation":[
				15.000000953674316,
				0,
				0
			]
		},
		{
			"mesh":14,
			"name":"Cube.014",
			"translation":[
				20.000001907348633,
				0,
				0
			]
		},
		{
			"mesh":15,
			"name":"Cube.015",
			"translation":[
				24.999996185302734,
				3.606081008911133e-06,
				0
			]
		},
		{
			"mesh":16,
			"name":"Cube.016",
			"translation":[
				19.952354431152344,
				-0.03589010238647461,
				-0.004175662994384766
			]
		},
		{
			"mesh":17,
			"name":"Cube.017",
			"translation":[
				19.952354431152344,
				-0.03589010238647461,
				-0.004175662994384766
			]
		},
		{
			"mesh":18,
			"name":"Cube.018",
			"translation":[
				19.952350616455078,
				-0.03589057922363281,
				-0.004173874855041504
			]
		},
		{
			"mesh":19,
			"name":"Cube.019",
			"translation":[
				19.952350616455078,
				-0.03589057922363281,
				-0.004173874855041504
			]
		},
		{
			"mesh":20,
			"name":"Cube.020",
			"translation":[
				19.999998092651367,
				3.5762786865234375e-06,
				0
			]
		},
		{
			"mesh":21,
			"name":"Cube.021",
			"translation":[
				19.999998092651367,
				3.5762786865234375e-06,
				0
			]
		},
		{
			"mesh":22,
			"name":"Cube.022",
			"translation":[
				25,
				3.0994415283203125e-06,
				0
			]
		},
		{
			"mesh":23,
			"name":"Cube.023",
			"translation":[
				-1.7840681076049805,
				-0.7211542129516602,
				-6.054155349731445
			]
		},
		{
			"mesh":24,
			"name":"Cube.024",
			"scale":[
				0.33992093801498413,
				1,
				1
			],
			"translation":[
				29.29447364807129,
				1.5729506015777588,
				0
			]
		},
		{
			"mesh":25,
			"name":"Cube.026",
			"translation":[
				25.000003814697266,
				2.3245811462402344e-06,
				0
			]
		},
		{
			"mesh":26,
			"name":"Cube.027",
			"translation":[
				25.000003814697266,
				2.3245811462402344e-06,
				0
			]
		},
		{
			"mesh":27,
			"name":"Cube.028",
			"translation":[
				25.000003814697266,
				2.3245811462402344e-06,
				0
			]
		},
		{
			"mesh":28,
			"name":"Cube.029",
			"translation":[
				25.000003814697266,
				2.3245811462402344e-06,
				0
			]
		},
		{
			"mesh":29,
			"name":"Cube.034",
			"translation":[
				25.000003814697266,
				2.3245811462402344e-06,
				0
			]
		},
		{
			"mesh":30,
			"name":"Cube.040"
		},
		{
			"mesh":31,
			"name":"Cube.051"
		},
		{
			"mesh":32,
			"name":"Cube.052"
		},
		{
			"mesh":33,
			"name":"Cube.053"
		},
		{
			"mesh":34,
			"name":"Cube.054"
		},
		{
			"mesh":35,
			"name":"Cube.055"
		},
		{
			"mesh":36,
			"name":"Cube.056"
		},
		{
			"mesh":37,
			"name":"Cube.057"
		},
		{
			"mesh":38,
			"name":"Cube.058"
		},
		{
			"mesh":39,
			"name":"Cube.059"
		},
		{
			"mesh":40,
			"name":"Cube.060"
		},
		{
			"mesh":41,
			"name":"Cube.061"
		},
		{
			"mesh":42,
			"name":"Cube.062"
		},
		{
			"mesh":43,
			"name":"Cube.063"
		},
		{
			"mesh":44,
			"name":"Cube.064"
		},
		{
			"mesh":45,
			"name":"Cube.066"
		},
		{
			"mesh":46,
			"name":"Cube.067",
			"scale":[
				1.988142490386963,
				1,
				1
			],
			"translation":[
				14.552046775817871,
				-4.827976226806641e-06,
				0
			]
		},
		{
			"mesh":47,
			"name":"Cube.068",
			"scale":[
				1.988142490386963,
				1,
				1
			],
			"translation":[
				14.552047729492188,
				3.814697265625e-06,
				0
			]
		},
		{
			"mesh":48,
			"name":"Cube.073"
		},
		{
			"mesh":49,
			"name":"Cube.074"
		},
		{
			"mesh":50,
			"name":"Cube.075"
		},
		{
			"mesh":51,
			"name":"Cube.078"
		},
		{
			"mesh":52,
			"name":"Cube.079"
		},
		{
			"mesh":53,
			"name":"Cube.080"
		},
		{
			"mesh":54,
			"name":"Cube.081"
		},
		{
			"mesh":55,
			"name":"Cube.082"
		},
		{
			"children":[
				0,
				1,
				2,
				3,
				4,
				5,
				6,
				7,
				8,
				9,
				10,
				11,
				12,
				13,
				14,
				15,
				16,
				17,
				18,
				19,
				20,
				21,
				22,
				23,
				24,
				25,
				26,
				27,
				28,
				29,
				30,
				31,
				32,
				33,
				34,
				35,
				36,
				37,
				38,
				39,
				40,
				41,
				42,
				43,
				44,
				45,
				46,
				47,
				48,
				49,
				50,
				51,
				52,
				53,
				54,
				55
			],
			"name":"Empty"
		}
	],
	"materials":[
		{
			"doubleSided":true,
			"name":"DefaultMaterial.078",
			"pbrMetallicRoughness":{
				"metallicFactor":0,
				"roughnessFactor":0.5
			}
		},
		{
			"doubleSided":true,
			"name":"DefaultMaterial.073",
			"pbrMetallicRoughness":{
				"metallicFactor":0,
				"roughnessFactor":0.5
			}
		},
		{
			"doubleSided":true,
			"name":"DefaultMaterial.074",
			"pbrMetallicRoughness":{
				"metallicFactor":0,
				"roughnessFactor":0.5
			}
		},
		{
			"doubleSided":true,
			"name":"DefaultMaterial.075",
			"pbrMetallicRoughness":{
				"metallicFactor":0,
				"roughnessFactor":0.5
			}
		},
		{
			"doubleSided":true,
			"name":"DefaultMaterial.076",
			"pbrMetallicRoughness":{
				"metallicFactor":0,
				"roughnessFactor":0.5
			}
		},
		{
			"doubleSided":true,
			"name":"DefaultMaterial.077",
			"pbrMetallicRoughness":{
				"metallicFactor":0,
				"roughnessFactor":0.5
			}
		},
		{
			"doubleSided":true,
			"name":"DefaultMaterial.079",
			"pbrMetallicRoughness":{
				"metallicFactor":0,
				"roughnessFactor":0.5
			}
		},
		{
			"doubleSided":true,
			"name":"DefaultMaterial.080",
			"pbrMetallicRoughness":{
				"metallicFactor":0,
				"roughnessFactor":0.5
			}
		},
		{
			"doubleSided":true,
			"name":"DefaultMaterial.081",
			"pbrMetallicRoughness":{
				"metallicFactor":0,
				"roughnessFactor":0.5
			}
		},
		{
			"doubleSided":true,
			"name":"DefaultMaterial.082",
			"pbrMetallicRoughness":{
				"metallicFactor":0,
				"roughnessFactor":0.5
			}
		},
		{
			"doubleSided":true,
			"name":"DefaultMaterial.033",
			"pbrMetallicRoughness":{
				"metallicFactor":0,
				"roughnessFactor":0.5
			}
		},
		{
			"doubleSided":true,
			"name":"DefaultMaterial.005",
			"pbrMetallicRoughness":{
				"metallicFactor":0,
				"roughnessFactor":0.5
			}
		},
		{
			"doubleSided":true,
			"name":"DefaultMaterial.006",
			"pbrMetallicRoughness":{
				"metallicFactor":0,
				"roughnessFactor":0.5
			}
		},
		{
			"doubleSided":true,
			"name":"DefaultMaterial.007",
			"pbrMetallicRoughness":{
				"metallicFactor":0,
				"roughnessFactor":0.5
			}
		},
		{
			"doubleSided":true,
			"name":"DefaultMaterial.008",
			"pbrMetallicRoughness":{
				"metallicFactor":0,
				"roughnessFactor":0.5
			}
		},
		{
			"doubleSided":true,
			"name":"DefaultMaterial.010",
			"pbrMetallicRoughness":{
				"metallicFactor":0,
				"roughnessFactor":0.5
			}
		},
		{
			"doubleSided":true,
			"name":"DefaultMaterial.031",
			"pbrMetallicRoughness":{
				"metallicFactor":0,
				"roughnessFactor":0.5
			}
		},
		{
			"doubleSided":true,
			"name":"DefaultMaterial.032",
			"pbrMetallicRoughness":{
				"metallicFactor":0,
				"roughnessFactor":0.5
			}
		},
		{
			"doubleSided":true,
			"name":"DefaultMaterial.037",
			"pbrMetallicRoughness":{
				"metallicFactor":0,
				"roughnessFactor":0.5
			}
		},
		{
			"doubleSided":true,
			"name":"DefaultMaterial.038",
			"pbrMetallicRoughness":{
				"metallicFactor":0,
				"roughnessFactor":0.5
			}
		},
		{
			"doubleSided":true,
			"name":"DefaultMaterial.039",
			"pbrMetallicRoughness":{
				"metallicFactor":0,
				"roughnessFactor":0.5
			}
		},
		{
			"doubleSided":true,
			"name":"DefaultMaterial.040",
			"pbrMetallicRoughness":{
				"metallicFactor":0,
				"roughnessFactor":0.5
			}
		},
		{
			"doubleSided":true,
			"name":"DefaultMaterial.041",
			"pbrMetallicRoughness":{
				"metallicFactor":0,
				"roughnessFactor":0.5
			}
		},
		{
			"doubleSided":true,
			"name":"DefaultMaterial.042",
			"pbrMetallicRoughness":{
				"metallicFactor":0,
				"roughnessFactor":0.5
			}
		}
	],
	"meshes":[
		{
			"name":"Cube.104",
			"primitives":[
				{
					"attributes":{
						"POSITION":0,
						"NORMAL":1,
						"TEXCOORD_0":2,
						"COLOR_0":3
					},
					"indices":4
				}
			]
		},
		{
			"name":"Cube.075",
			"primitives":[
				{
					"attributes":{
						"POSITION":5,
						"NORMAL":6,
						"TEXCOORD_0":7,
						"COLOR_0":8
					},
					"indices":9,
					"material":0
				}
			]
		},
		{
			"name":"Cube.062",
			"primitives":[
				{
					"attributes":{
						"POSITION":10,
						"NORMAL":11,
						"TEXCOORD_0":12,
						"COLOR_0":13
					},
					"indices":9,
					"material":1
				}
			]
		},
		{
			"name":"Cube.065",
			"primitives":[
				{
					"attributes":{
						"POSITION":14,
						"NORMAL":15,
						"TEXCOORD_0":16,
						"COLOR_0":17
					},
					"indices":9,
					"material":2
				}
			]
		},
		{
			"name":"Cube.066",
			"primitives":[
				{
					"attributes":{
						"POSITION":18,
						"NORMAL":19,
						"TEXCOORD_0":20,
						"COLOR_0":21
					},
					"indices":9,
					"material":3
				}
			]
		},
		{
			"name":"Cube.067",
			"primitives":[
				{
					"attributes":{
						"POSITION":22,
						"NORMAL":23,
						"TEXCOORD_0":24,
						"COLOR_0":25
					},
					"indices":9,
					"material":4
				}
			]
		},
		{
			"name":"Cube.073",
			"primitives":[
				{
					"attributes":{
						"POSITION":26,
						"NORMAL":27,
						"TEXCOORD_0":28,
						"COLOR_0":29
					},
					"indices":9,
					"material":5
				}
			]
		},
		{
			"name":"Cube.076",
			"primitives":[
				{
					"attributes":{
						"POSITION":30,
						"NORMAL":31,
						"TEXCOORD_0":32,
						"COLOR_0":33
					},
					"indices":9,
					"material":6
				}
			]
		},
		{
			"name":"Cube.077",
			"primitives":[
				{
					"attributes":{
						"POSITION":34,
						"NORMAL":35,
						"TEXCOORD_0":36,
						"COLOR_0":37
					},
					"indices":9,
					"material":7
				}
			]
		},
		{
			"name":"Cube.089",
			"primitives":[
				{
					"attributes":{
						"POSITION":38,
						"NORMAL":39,
						"TEXCOORD_0":40,
						"COLOR_0":41
					},
					"indices":9,
					"material":8
				}
			]
		},
		{
			"name":"Cube.090",
			"primitives":[
				{
					"attributes":{
						"POSITION":42,
						"NORMAL":43,
						"TEXCOORD_0":44,
						"COLOR_0":45
					},
					"indices":9,
					"material":9
				}
			]
		},
		{
			"name":"Cube.091",
			"primitives":[
				{
					"attributes":{
						"POSITION":46,
						"NORMAL":47,
						"TEXCOORD_0":48,
						"COLOR_0":49
					},
					"indices":9
				}
			]
		},
		{
			"name":"Cube.098",
			"primitives":[
				{
					"attributes":{
						"POSITION":50,
						"NORMAL":51,
						"TEXCOORD_0":52,
						"COLOR_0":53
					},
					"indices":9
				}
			]
		},
		{
			"name":"Cube.093",
			"primitives":[
				{
					"attributes":{
						"POSITION":54,
						"NORMAL":55,
						"TEXCOORD_0":56,
						"COLOR_0":57
					},
					"indices":9
				}
			]
		},
		{
			"name":"Cube.094",
			"primitives":[
				{
					"attributes":{
						"POSITION":58,
						"NORMAL":59,
						"TEXCOORD_0":60,
						"COLOR_0":61
					},
					"indices":9
				}
			]
		},
		{
			"name":"Cube.095",
			"primitives":[
				{
					"attributes":{
						"POSITION":62,
						"NORMAL":63,
						"TEXCOORD_0":64,
						"COLOR_0":65
					},
					"indices":9
				}
			]
		},
		{
			"name":"Cube.096",
			"primitives":[
				{
					"attributes":{
						"POSITION":66,
						"NORMAL":67,
						"TEXCOORD_0":68,
						"COLOR_0":69
					},
					"indices":9
				}
			]
		},
		{
			"name":"Cube.097",
			"primitives":[
				{
					"attributes":{
						"POSITION":70,
						"NORMAL":71,
						"TEXCOORD_0":72,
						"COLOR_0":73
					},
					"indices":74
				}
			]
		},
		{
			"name":"Cube.099",
			"primitives":[
				{
					"attributes":{
						"POSITION":75,
						"NORMAL":76,
						"TEXCOORD_0":77,
						"COLOR_0":78
					},
					"indices":79
				}
			]
		},
		{
			"name":"Cube.100",
			"primitives":[
				{
					"attributes":{
						"POSITION":80,
						"NORMAL":81,
						"TEXCOORD_0":82,
						"COLOR_0":83
					},
					"indices":9
				}
			]
		},
		{
			"name":"Cube.101",
			"primitives":[
				{
					"attributes":{
						"POSITION":84,
						"NORMAL":85,
						"TEXCOORD_0":86,
						"COLOR_0":87
					},
					"indices":9
				}
			]
		},
		{
			"name":"Cube.102",
			"primitives":[
				{
					"attributes":{
						"POSITION":88,
						"NORMAL":89,
						"TEXCOORD_0":90,
						"COLOR_0":91
					},
					"indices":9
				}
			]
		},
		{
			"name":"Cube.103",
			"primitives":[
				{
					"attributes":{
						"POSITION":92,
						"NORMAL":93,
						"TEXCOORD_0":94,
						"COLOR_0":95
					},
					"indices":9
				}
			]
		},
		{
			"name":"Cube.105",
			"primitives":[
				{
					"attributes":{
						"POSITION":96,
						"NORMAL":97,
						"TEXCOORD_0":98,
						"COLOR_0":99
					},
					"indices":4
				}
			]
		},
		{
			"name":"Cube.106",
			"primitives":[
				{
					"attributes":{
						"POSITION":100,
						"NORMAL":101,
						"TEXCOORD_0":102,
						"COLOR_0":103
					},
					"indices":104,
					"material":10
				}
			]
		},
		{
			"name":"Cube.019",
			"primitives":[
				{
					"attributes":{
						"POSITION":105,
						"NORMAL":106,
						"TEXCOORD_0":107,
						"COLOR_0":108
					},
					"indices":9,
					"material":11
				}
			]
		},
		{
			"name":"Cube.020",
			"primitives":[
				{
					"attributes":{
						"POSITION":109,
						"NORMAL":110,
						"TEXCOORD_0":111,
						"COLOR_0":112
					},
					"indices":9,
					"material":12
				}
			]
		},
		{
			"name":"Cube.021",
			"primitives":[
				{
					"attributes":{
						"POSITION":113,
						"NORMAL":114,
						"TEXCOORD_0":115,
						"COLOR_0":116
					},
					"indices":9,
					"material":13
				}
			]
		},
		{
			"name":"Cube.022",
			"primitives":[
				{
					"attributes":{
						"POSITION":117,
						"NORMAL":118,
						"TEXCOORD_0":119,
						"COLOR_0":120
					},
					"indices":9,
					"material":14
				}
			]
		},
		{
			"name":"Cube.045",
			"primitives":[
				{
					"attributes":{
						"POSITION":121,
						"NORMAL":122,
						"TEXCOORD_0":123,
						"COLOR_0":124
					},
					"indices":9,
					"material":15
				}
			]
		},
		{
			"name":"Cube.122",
			"primitives":[
				{
					"attributes":{
						"POSITION":125,
						"NORMAL":126,
						"TEXCOORD_0":127,
						"COLOR_0":128
					},
					"indices":9
				}
			]
		},
		{
			"name":"Cube.123",
			"primitives":[
				{
					"attributes":{
						"POSITION":129,
						"NORMAL":130,
						"TEXCOORD_0":131,
						"COLOR_0":132
					},
					"indices":79
				}
			]
		},
		{
			"name":"Cube.124",
			"primitives":[
				{
					"attributes":{
						"POSITION":133,
						"NORMAL":134,
						"TEXCOORD_0":135,
						"COLOR_0":136
					},
					"indices":4
				}
			]
		},
		{
			"name":"Cube.125",
			"primitives":[
				{
					"attributes":{
						"POSITION":137,
						"NORMAL":138,
						"TEXCOORD_0":139,
						"COLOR_0":140
					},
					"indices":9
				}
			]
		},
		{
			"name":"Cube.126",
			"primitives":[
				{
					"attributes":{
						"POSITION":141,
						"NORMAL":142,
						"TEXCOORD_0":143,
						"COLOR_0":144
					},
					"indices":9
				}
			]
		},
		{
			"name":"Cube.127",
			"primitives":[
				{
					"attributes":{
						"POSITION":145,
						"NORMAL":146,
						"TEXCOORD_0":147,
						"COLOR_0":148
					},
					"indices":9
				}
			]
		},
		{
			"name":"Cube.128",
			"primitives":[
				{
					"attributes":{
						"POSITION":149,
						"NORMAL":150,
						"TEXCOORD_0":151,
						"COLOR_0":152
					},
					"indices":74
				}
			]
		},
		{
			"name":"Cube.129",
			"primitives":[
				{
					"attributes":{
						"POSITION":153,
						"NORMAL":154,
						"TEXCOORD_0":155,
						"COLOR_0":156
					},
					"indices":4
				}
			]
		},
		{
			"name":"Cube.130",
			"primitives":[
				{
					"attributes":{
						"POSITION":157,
						"NORMAL":158,
						"TEXCOORD_0":159,
						"COLOR_0":160
					},
					"indices":9
				}
			]
		},
		{
			"name":"Cube.131",
			"primitives":[
				{
					"attributes":{
						"POSITION":161,
						"NORMAL":162,
						"TEXCOORD_0":163,
						"COLOR_0":164
					},
					"indices":9
				}
			]
		},
		{
			"name":"Cube.132",
			"primitives":[
				{
					"attributes":{
						"POSITION":165,
						"NORMAL":166,
						"TEXCOORD_0":167,
						"COLOR_0":168
					},
					"indices":9
				}
			]
		},
		{
			"name":"Cube.133",
			"primitives":[
				{
					"attributes":{
						"POSITION":169,
						"NORMAL":170,
						"TEXCOORD_0":171,
						"COLOR_0":172
					},
					"indices":9
				}
			]
		},
		{
			"name":"Cube.134",
			"primitives":[
				{
					"attributes":{
						"POSITION":173,
						"NORMAL":174,
						"TEXCOORD_0":175,
						"COLOR_0":176
					},
					"indices":9
				}
			]
		},
		{
			"name":"Cube.135",
			"primitives":[
				{
					"attributes":{
						"POSITION":177,
						"NORMAL":178,
						"TEXCOORD_0":179,
						"COLOR_0":180
					},
					"indices":4
				}
			]
		},
		{
			"name":"Cube.136",
			"primitives":[
				{
					"attributes":{
						"POSITION":181,
						"NORMAL":182,
						"TEXCOORD_0":183,
						"COLOR_0":184
					},
					"indices":4
				}
			]
		},
		{
			"name":"Cube.138",
			"primitives":[
				{
					"attributes":{
						"POSITION":185,
						"NORMAL":186,
						"TEXCOORD_0":187,
						"COLOR_0":188
					},
					"indices":4,
					"material":16
				}
			]
		},
		{
			"name":"Cube.139",
			"primitives":[
				{
					"attributes":{
						"POSITION":189,
						"NORMAL":190,
						"TEXCOORD_0":191,
						"COLOR_0":192
					},
					"indices":104,
					"material":17
				}
			]
		},
		{
			"name":"Cube.140",
			"primitives":[
				{
					"attributes":{
						"POSITION":193,
						"NORMAL":194,
						"TEXCOORD_0":195,
						"COLOR_0":196
					},
					"indices":104,
					"material":10
				}
			]
		},
		{
			"name":"Cube.145",
			"primitives":[
				{
					"attributes":{
						"POSITION":197,
						"NORMAL":198,
						"TEXCOORD_0":199,
						"COLOR_0":200
					},
					"indices":9,
					"material":18
				}
			]
		},
		{
			"name":"Cube.146",
			"primitives":[
				{
					"attributes":{
						"POSITION":201,
						"NORMAL":202,
						"TEXCOORD_0":203,
						"COLOR_0":204
					},
					"indices":9,
					"material":19
				}
			]
		},
		{
			"name":"Cube.147",
			"primitives":[
				{
					"attributes":{
						"POSITION":205,
						"NORMAL":206,
						"TEXCOORD_0":207,
						"COLOR_0":208
					},
					"indices":9,
					"material":20
				}
			]
		},
		{
			"name":"Cube.150",
			"primitives":[
				{
					"attributes":{
						"POSITION":209,
						"NORMAL":210,
						"TEXCOORD_0":211,
						"COLOR_0":212
					},
					"indices":9,
					"material":21
				}
			]
		},
		{
			"name":"Cube.151",
			"primitives":[
				{
					"attributes":{
						"POSITION":213,
						"NORMAL":214,
						"TEXCOORD_0":215,
						"COLOR_0":216
					},
					"indices":217
				}
			]
		},
		{
			"name":"Cube.152",
			"primitives":[
				{
					"attributes":{
						"POSITION":218,
						"NORMAL":219,
						"TEXCOORD_0":220,
						"COLOR_0":221
					},
					"indices":9
				}
			]
		},
		{
			"name":"Cube.153",
			"primitives":[
				{
					"attributes":{
						"POSITION":222,
						"NORMAL":223,
						"TEXCOORD_0":224,
						"COLOR_0":225
					},
					"indices":9,
					"material":22
				}
			]
		},
		{
			"name":"Cube.154",
			"primitives":[
				{
					"attributes":{
						"POSITION":226,
						"NORMAL":227,
						"TEXCOORD_0":228,
						"COLOR_0":229
					},
					"indices":9,
					"material":23
				}
			]
		}
	],
	"accessors":[
		{
			"bufferView":0,
			"componentType":5126,
			"count":24,
			"max":[
				1,
				1,
				1
			],
			"min":[
				-1,
				-1,
				-1
			],
			"type":"VEC3"
		},
		{
			"bufferView":1,
			"componentType":5126,
			"count":24,
			"type":"VEC3"
		},
		{
			"bufferView":2,
			"componentType":5126,
			"count":24,
			"type":"VEC2"
		},
		{
			"bufferView":3,
			"componentType":5123,
			"count":24,
			"normalized":true,
			"type":"VEC4"
		},
		{
			"bufferView":4,
			"componentType":5123,
			"count":36,
			"type":"SCALAR"
		},
		{
			"bufferView":5,
			"componentType":5126,
			"count":24,
			"max":[
				10.573320388793945,
				2.2788491249084473,
				-7.054154872894287
			],
			"min":[
				5.5733184814453125,
				-1.7211523056030273,
				-7.354155540466309
			],
			"type":"VEC3"
		},
		{
			"bufferView":6,
			"componentType":5126,
			"count":24,
			"type":"VEC3"
		},
		{
			"bufferView":7,
			"componentType":5126,
			"count":24,
			"type":"VEC2"
		},
		{
			"bufferView":8,
			"componentType":5126,
			"count":24,
			"type":"VEC3"
		},
		{
			"bufferView":9,
			"componentType":5123,
			"count":36,
			"type":"SCALAR"
		},
		{
			"bufferView":10,
			"componentType":5126,
			"count":24,
			"max":[
				-9.426681518554688,
				2.2788467407226562,
				7.645843982696533
			],
			"min":[
				-14.42668342590332,
				-1.7211546897888184,
				7.345843315124512
			],
			"type":"VEC3"
		},
		{
			"bufferView":11,
			"componentType":5126,
			"count":24,
			"type":"VEC3"
		},
		{
			"bufferView":12,
			"componentType":5126,
			"count":24,
			"type":"VEC2"
		},
		{
			"bufferView":13,
			"componentType":5126,
			"count":24,
			"type":"VEC3"
		},
		{
			"bufferView":14,
			"componentType":5126,
			"count":24,
			"max":[
				-4.4266815185546875,
				2.2788476943969727,
				7.645843982696533
			],
			"min":[
				-9.42668342590332,
				-1.721153736114502,
				7.345843315124512
			],
			"type":"VEC3"
		},
		{
			"bufferView":15,
			"componentType":5126,
			"count":24,
			"type":"VEC3"
		},
		{
			"bufferView":16,
			"componentType":5126,
			"count":24,
			"type":"VEC2"
		},
		{
			"bufferView":17,
			"componentType":5126,
			"count":24,
			"type":"VEC3"
		},
		{
			"bufferView":18,
			"componentType":5126,
			"count":24,
			"max":[
				0.5733184814453125,
				2.2788476943969727,
				7.645843982696533
			],
			"min":[
				-4.426682949066162,
				-1.721153736114502,
				7.345843315124512
			],
			"type":"VEC3"
		},
		{
			"bufferView":19,
			"componentType":5126,
			"count":24,
			"type":"VEC3"
		},
		{
			"bufferView":20,
			"componentType":5126,
			"count":24,
			"type":"VEC2"
		},
		{
			"bufferView":21,
			"componentType":5126,
			"count":24,
			"type":"VEC3"
		},
		{
			"bufferView":22,
			"componentType":5126,
			"count":24,
			"max":[
				5.5733184814453125,
				2.278848648071289,
				7.645843982696533
			],
			"min":[
				0.5733170509338379,
				-1.7211527824401855,
				7.345843315124512
			],
			"type":"VEC3"
		},
		{
			"bufferView":23,
			"componentType":5126,
			"count":24,
			"type":"VEC3"
		},
		{
			"bufferView":24,
			"componentType":5126,
			"count":24,
			"type":"VEC2"
		},
		{
			"bufferView":25,
			"componentType":5126,
			"count":24,
			"type":"VEC3"
		},
		{
			"bufferView":26,
			"componentType":5126,
			"count":24,
			"max":[
				10.573318481445312,
				2.278848648071289,
				7.645843982696533
			],
			"min":[
				5.57331657409668,
				-1.7211527824401855,
				7.345843315124512
			],
			"type":"VEC3"
		},
		{
			"bufferView":27,
			"componentType":5126,
			"count":24,
			"type":"VEC3"
		},
		{
			"bufferView":28,
			"componentType":5126,
			"count":24,
			"type":"VEC2"
		},
		{
			"bufferView":29,
			"componentType":5126,
			"count":24,
			"type":"VEC3"
		},
		{
			"bufferView":30,
			"componentType":5126,
			"count":24,
			"max":[
				0.5733203887939453,
				2.278848171234131,
				-7.054154872894287
			],
			"min":[
				-4.426681041717529,
				-1.7211532592773438,
				-7.354155540466309
			],
			"type":"VEC3"
		},
		{
			"bufferView":31,
			"componentType":5126,
			"count":24,
			"type":"VEC3"
		},
		{
			"bufferView":32,
			"componentType":5126,
			"count":24,
			"type":"VEC2"
		},
		{
			"bufferView":33,
			"componentType":5126,
			"count":24,
			"type":"VEC3"
		},
		{
			"bufferView":34,
			"componentType":5126,
			"count":24,
			"max":[
				5.573320388793945,
				2.2788491249084473,
				-7.054154872894287
			],
			"min":[
				0.5733189582824707,
				-1.7211523056030273,
				-7.354155540466309
			],
			"type":"VEC3"
		},
		{
			"bufferView":35,
			"componentType":5126,
			"count":24,
			"type":"VEC3"
		},
		{
			"bufferView":36,
			"componentType":5126,
			"count":24,
			"type":"VEC2"
		},
		{
			"bufferView":37,
			"componentType":5126,
			"count":24,
			"type":"VEC3"
		},
		{
			"bufferView":38,
			"componentType":5126,
			"count":24,
			"max":[
				-4.426679611206055,
				2.278848171234131,
				-7.054154872894287
			],
			"min":[
				-9.426681518554688,
				-1.7211532592773438,
				-7.354155540466309
			],
			"type":"VEC3"
		},
		{
			"bufferView":39,
			"componentType":5126,
			"count":24,
			"type":"VEC3"
		},
		{
			"bufferView":40,
			"componentType":5126,
			"count":24,
			"type":"VEC2"
		},
		{
			"bufferView":41,
			"componentType":5126,
			"count":24,
			"type":"VEC3"
		},
		{
			"bufferView":42,
			"componentType":5126,
			"count":24,
			"max":[
				-9.426679611206055,
				2.2788472175598145,
				-7.054154872894287
			],
			"min":[
				-14.426681518554688,
				-1.7211542129516602,
				-7.354155540466309
			],
			"type":"VEC3"
		},
		{
			"bufferView":43,
			"componentType":5126,
			"count":24,
			"type":"VEC3"
		},
		{
			"bufferView":44,
			"componentType":5126,
			"count":24,
			"type":"VEC2"
		},
		{
			"bufferView":45,
			"componentType":5126,
			"count":24,
			"type":"VEC3"
		},
		{
			"bufferView":46,
			"componentType":5126,
			"count":24,
			"max":[
				10.573320388793945,
				6.278848648071289,
				7.645843982696533
			],
			"min":[
				5.5733184814453125,
				2.2788474559783936,
				7.345843315124512
			],
			"type":"VEC3"
		},
		{
			"bufferView":47,
			"componentType":5126,
			"count":24,
			"type":"VEC3"
		},
		{
			"bufferView":48,
			"componentType":5126,
			"count":24,
			"type":"VEC2"
		},
		{
			"bufferView":49,
			"componentType":5123,
			"count":24,
			"normalized":true,
			"type":"VEC4"
		},
		{
			"bufferView":50,
			"componentType":5126,
			"count":24,
			"max":[
				10.573318481445312,
				6.2788496017456055,
				-7.054154872894287
			],
			"min":[
				5.57331657409668,
				2.2788479328155518,
				-7.354155540466309
			],
			"type":"VEC3"
		},
		{
			"bufferView":51,
			"componentType":5126,
			"count":24,
			"type":"VEC3"
		},
		{
			"bufferView":52,
			"componentType":5126,
			"count":24,
			"type":"VEC2"
		},
		{
			"bufferView":53,
			"componentType":5123,
			"count":24,
			"normalized":true,
			"type":"VEC4"
		},
		{
			"bufferView":54,
			"componentType":5126,
			"count":24,
			"max":[
				10.573320388793945,
				6.278848648071289,
				7.645843982696533
			],
			"min":[
				5.5733184814453125,
				2.2788474559783936,
				7.345843315124512
			],
			"type":"VEC3"
		},
		{
			"bufferView":55,
			"componentType":5126,
			"count":24,
			"type":"VEC3"
		},
		{
			"bufferView":56,
			"componentType":5126,
			"count":24,
			"type":"VEC2"
		},
		{
			"bufferView":57,
			"componentType":5123,
			"count":24,
			"normalized":true,
			"type":"VEC4"
		},
		{
			"bufferView":58,
			"componentType":5126,
			"count":24,
			"max":[
				10.573320388793945,
				6.278848648071289,
				7.645843982696533
			],
			"min":[
				5.5733184814453125,
				2.2788474559783936,
				7.345843315124512
			],
			"type":"VEC3"
		},
		{
			"bufferView":59,
			"componentType":5126,
			"count":24,
			"type":"VEC3"
		},
		{
			"bufferView":60,
			"componentType":5126,
			"count":24,
			"type":"VEC2"
		},
		{
			"bufferView":61,
			"componentType":5123,
			"count":24,
			"normalized":true,
			"type":"VEC4"
		},
		{
			"bufferView":62,
			"componentType":5126,
			"count":24,
			"max":[
				10.573320388793945,
				6.278848648071289,
				7.645843982696533
			],
			"min":[
				5.5733184814453125,
				2.2788474559783936,
				7.345843315124512
			],
			"type":"VEC3"
		},
		{
			"bufferView":63,
			"componentType":5126,
			"count":24,
			"type":"VEC3"
		},
		{
			"bufferView":64,
			"componentType":5126,
			"count":24,
			"type":"VEC2"
		},
		{
			"bufferView":65,
			"componentType":5123,
			"count":24,
			"normalized":true,
			"type":"VEC4"
		},
		{
			"bufferView":66,
			"componentType":5126,
			"count":24,
			"max":[
				0.5733170509338379,
				6.278848648071289,
				7.645843982696533
			],
			"min":[
				-4.42668342590332,
				4.878847122192383,
				7.34584379196167
			],
			"type":"VEC3"
		},
		{
			"bufferView":67,
			"componentType":5126,
			"count":24,
			"type":"VEC3"
		},
		{
			"bufferView":68,
			"componentType":5126,
			"count":24,
			"type":"VEC2"
		},
		{
			"bufferView":69,
			"componentType":5123,
			"count":24,
			"normalized":true,
			"type":"VEC4"
		},
		{
			"bufferView":70,
			"componentType":5126,
			"count":558,
			"max":[
				0.6209673881530762,
				4.914740562438965,
				7.650020122528076
			],
			"min":[
				-4.379033088684082,
				2.3147387504577637,
				7.3500189781188965
			],
			"type":"VEC3"
		},
		{
			"bufferView":71,
			"componentType":5126,
			"count":558,
			"type":"VEC3"
		},
		{
			"bufferView":72,
			"componentType":5126,
			"count":558,
			"type":"VEC2"
		},
		{
			"bufferView":73,
			"componentType":5123,
			"count":558,
			"normalized":true,
			"type":"VEC4"
		},
		{
			"bufferView":74,
			"componentType":5123,
			"count":1014,
			"type":"SCALAR"
		},
		{
			"bufferView":75,
			"componentType":5126,
			"count":555,
			"max":[
				0.620969295501709,
				4.914741516113281,
				-7.049978733062744
			],
			"min":[
				-4.379031181335449,
				2.31473970413208,
				-7.349979877471924
			],
			"type":"VEC3"
		},
		{
			"bufferView":76,
			"componentType":5126,
			"count":555,
			"type":"VEC3"
		},
		{
			"bufferView":77,
			"componentType":5126,
			"count":555,
			"type":"VEC2"
		},
		{
			"bufferView":78,
			"componentType":5123,
			"count":555,
			"normalized":true,
			"type":"VEC4"
		},
		{
			"bufferView":79,
			"componentType":5123,
			"count":1014,
			"type":"SCALAR"
		},
		{
			"bufferView":80,
			"componentType":5126,
			"count":24,
			"max":[
				0.5733189582824707,
				6.278848648071289,
				-7.054154872894287
			],
			"min":[
				-4.4266815185546875,
				4.878847122192383,
				-7.35415506362915
			],
			"type":"VEC3"
		},
		{
			"bufferView":81,
			"componentType":5126,
			"count":24,
			"type":"VEC3"
		},
		{
			"bufferView":82,
			"componentType":5126,
			"count":24,
			"type":"VEC2"
		},
		{
			"bufferView":83,
			"componentType":5123,
			"count":24,
			"normalized":true,
			"type":"VEC4"
		},
		{
			"bufferView":84,
			"componentType":5126,
			"count":24,
			"max":[
				10.573318481445312,
				6.2788496017456055,
				-7.054154872894287
			],
			"min":[
				5.57331657409668,
				2.2788479328155518,
				-7.354155540466309
			],
			"type":"VEC3"
		},
		{
			"bufferView":85,
			"componentType":5126,
			"count":24,
			"type":"VEC3"
		},
		{
			"bufferView":86,
			"componentType":5126,
			"count":24,
			"type":"VEC2"
		},
		{
			"bufferView":87,
			"componentType":5123,
			"count":24,
			"normalized":true,
			"type":"VEC4"
		},
		{
			"bufferView":88,
			"componentType":5126,
			"count":24,
			"max":[
				5.573320388793945,
				6.278848648071289,
				-7.054154872894287
			],
			"min":[
				0.5733189582824707,
				2.2788474559783936,
				-7.354155540466309
			],
			"type":"VEC3"
		},
		{
			"bufferView":89,
			"componentType":5126,
			"count":24,
			"type":"VEC3"
		},
		{
			"bufferView":90,
			"componentType":5126,
			"count":24,
			"type":"VEC2"
		},
		{
			"bufferView":91,
			"componentType":5123,
			"count":24,
			"normalized":true,
			"type":"VEC4"
		},
		{
			"bufferView":92,
			"componentType":5126,
			"count":24,
			"max":[
				10.573318481445312,
				6.2788496017456055,
				-7.054154872894287
			],
			"min":[
				5.57331657409668,
				2.2788479328155518,
				-7.354155540466309
			],
			"type":"VEC3"
		},
		{
			"bufferView":93,
			"componentType":5126,
			"count":24,
			"type":"VEC3"
		},
		{
			"bufferView":94,
			"componentType":5126,
			"count":24,
			"type":"VEC2"
		},
		{
			"bufferView":95,
			"componentType":5123,
			"count":24,
			"normalized":true,
			"type":"VEC4"
		},
		{
			"bufferView":96,
			"componentType":5126,
			"count":24,
			"max":[
				1,
				1,
				1
			],
			"min":[
				-1,
				-1,
				-1
			],
			"type":"VEC3"
		},
		{
			"bufferView":97,
			"componentType":5126,
			"count":24,
			"type":"VEC3"
		},
		{
			"bufferView":98,
			"componentType":5126,
			"count":24,
			"type":"VEC2"
		},
		{
			"bufferView":99,
			"componentType":5123,
			"count":24,
			"normalized":true,
			"type":"VEC4"
		},
		{
			"bufferView":100,
			"componentType":5126,
			"count":24,
			"max":[
				19.35406494140625,
				5.005904674530029,
				7.645843029022217
			],
			"min":[
				18.47148323059082,
				-3.59409499168396,
				-7.354156494140625
			],
			"type":"VEC3"
		},
		{
			"bufferView":101,
			"componentType":5126,
			"count":24,
			"type":"VEC3"
		},
		{
			"bufferView":102,
			"componentType":5126,
			"count":24,
			"type":"VEC2"
		},
		{
			"bufferView":103,
			"componentType":5126,
			"count":24,
			"type":"VEC3"
		},
		{
			"bufferView":104,
			"componentType":5123,
			"count":36,
			"type":"SCALAR"
		},
		{
			"bufferView":105,
			"componentType":5126,
			"count":24,
			"max":[
				10.573318481445312,
				2.278848648071289,
				7.645843982696533
			],
			"min":[
				5.57331657409668,
				-1.7211527824401855,
				7.345843315124512
			],
			"type":"VEC3"
		},
		{
			"bufferView":106,
			"componentType":5126,
			"count":24,
			"type":"VEC3"
		},
		{
			"bufferView":107,
			"componentType":5126,
			"count":24,
			"type":"VEC2"
		},
		{
			"bufferView":108,
			"componentType":5126,
			"count":24,
			"type":"VEC3"
		},
		{
			"bufferView":109,
			"componentType":5126,
			"count":24,
			"max":[
				5.5733184814453125,
				2.278848648071289,
				7.645843982696533
			],
			"min":[
				0.5733170509338379,
				-1.7211527824401855,
				7.345843315124512
			],
			"type":"VEC3"
		},
		{
			"bufferView":110,
			"componentType":5126,
			"count":24,
			"type":"VEC3"
		},
		{
			"bufferView":111,
			"componentType":5126,
			"count":24,
			"type":"VEC2"
		},
		{
			"bufferView":112,
			"componentType":5126,
			"count":24,
			"type":"VEC3"
		},
		{
			"bufferView":113,
			"componentType":5126,
			"count":24,
			"max":[
				0.5733184814453125,
				2.2788476943969727,
				7.645843982696533
			],
			"min":[
				-4.426682949066162,
				-1.721153736114502,
				7.345843315124512
			],
			"type":"VEC3"
		},
		{
			"bufferView":114,
			"componentType":5126,
			"count":24,
			"type":"VEC3"
		},
		{
			"bufferView":115,
			"componentType":5126,
			"count":24,
			"type":"VEC2"
		},
		{
			"bufferView":116,
			"componentType":5126,
			"count":24,
			"type":"VEC3"
		},
		{
			"bufferView":117,
			"componentType":5126,
			"count":24,
			"max":[
				-4.4266815185546875,
				2.2788476943969727,
				7.645843982696533
			],
			"min":[
				-9.42668342590332,
				-1.721153736114502,
				7.345843315124512
			],
			"type":"VEC3"
		},
		{
			"bufferView":118,
			"componentType":5126,
			"count":24,
			"type":"VEC3"
		},
		{
			"bufferView":119,
			"componentType":5126,
			"count":24,
			"type":"VEC2"
		},
		{
			"bufferView":120,
			"componentType":5126,
			"count":24,
			"type":"VEC3"
		},
		{
			"bufferView":121,
			"componentType":5126,
			"count":24,
			"max":[
				-9.426681518554688,
				2.2788467407226562,
				7.645843982696533
			],
			"min":[
				-14.42668342590332,
				-1.7211546897888184,
				7.345843315124512
			],
			"type":"VEC3"
		},
		{
			"bufferView":122,
			"componentType":5126,
			"count":24,
			"type":"VEC3"
		},
		{
			"bufferView":123,
			"componentType":5126,
			"count":24,
			"type":"VEC2"
		},
		{
			"bufferView":124,
			"componentType":5126,
			"count":24,
			"type":"VEC3"
		},
		{
			"bufferView":125,
			"componentType":5126,
			"count":24,
			"max":[
				0.5733170509338379,
				6.278848648071289,
				7.645843982696533
			],
			"min":[
				-4.42668342590332,
				4.878847122192383,
				7.34584379196167
			],
			"type":"VEC3"
		},
		{
			"bufferView":126,
			"componentType":5126,
			"count":24,
			"type":"VEC3"
		},
		{
			"bufferView":127,
			"componentType":5126,
			"count":24,
			"type":"VEC2"
		},
		{
			"bufferView":128,
			"componentType":5123,
			"count":24,
			"normalized":true,
			"type":"VEC4"
		},
		{
			"bufferView":129,
			"componentType":5126,
			"count":555,
			"max":[
				0.620969295501709,
				4.914741516113281,
				-7.049978733062744
			],
			"min":[
				-4.379031181335449,
				2.31473970413208,
				-7.349979877471924
			],
			"type":"VEC3"
		},
		{
			"bufferView":130,
			"componentType":5126,
			"count":555,
			"type":"VEC3"
		},
		{
			"bufferView":131,
			"componentType":5126,
			"count":555,
			"type":"VEC2"
		},
		{
			"bufferView":132,
			"componentType":5123,
			"count":555,
			"normalized":true,
			"type":"VEC4"
		},
		{
			"bufferView":133,
			"componentType":5126,
			"count":24,
			"max":[
				-14.426678657531738,
				6.278846263885498,
				2.645843505859375
			],
			"min":[
				-14.726680755615234,
				2.278846263885498,
				-2.354156494140625
			],
			"type":"VEC3"
		},
		{
			"bufferView":134,
			"componentType":5126,
			"count":24,
			"type":"VEC3"
		},
		{
			"bufferView":135,
			"componentType":5126,
			"count":24,
			"type":"VEC2"
		},
		{
			"bufferView":136,
			"componentType":5123,
			"count":24,
			"normalized":true,
			"type":"VEC4"
		},
		{
			"bufferView":137,
			"componentType":5126,
			"count":24,
			"max":[
				10.573318481445312,
				6.2788496017456055,
				-7.054154872894287
			],
			"min":[
				5.57331657409668,
				2.2788479328155518,
				-7.354155540466309
			],
			"type":"VEC3"
		},
		{
			"bufferView":138,
			"componentType":5126,
			"count":24,
			"type":"VEC3"
		},
		{
			"bufferView":139,
			"componentType":5126,
			"count":24,
			"type":"VEC2"
		},
		{
			"bufferView":140,
			"componentType":5123,
			"count":24,
			"normalized":true,
			"type":"VEC4"
		},
		{
			"bufferView":141,
			"componentType":5126,
			"count":24,
			"max":[
				5.573320388793945,
				6.278848648071289,
				-7.054154872894287
			],
			"min":[
				0.5733189582824707,
				2.2788474559783936,
				-7.354155540466309
			],
			"type":"VEC3"
		},
		{
			"bufferView":142,
			"componentType":5126,
			"count":24,
			"type":"VEC3"
		},
		{
			"bufferView":143,
			"componentType":5126,
			"count":24,
			"type":"VEC2"
		},
		{
			"bufferView":144,
			"componentType":5123,
			"count":24,
			"normalized":true,
			"type":"VEC4"
		},
		{
			"bufferView":145,
			"componentType":5126,
			"count":24,
			"max":[
				0.5733189582824707,
				6.278848648071289,
				-7.054154872894287
			],
			"min":[
				-4.4266815185546875,
				4.878847122192383,
				-7.35415506362915
			],
			"type":"VEC3"
		},
		{
			"bufferView":146,
			"componentType":5126,
			"count":24,
			"type":"VEC3"
		},
		{
			"bufferView":147,
			"componentType":5126,
			"count":24,
			"type":"VEC2"
		},
		{
			"bufferView":148,
			"componentType":5123,
			"count":24,
			"normalized":true,
			"type":"VEC4"
		},
		{
			"bufferView":149,
			"componentType":5126,
			"count":558,
			"max":[
				0.6209673881530762,
				4.914740562438965,
				7.650020122528076
			],
			"min":[
				-4.379033088684082,
				2.3147387504577637,
				7.3500189781188965
			],
			"type":"VEC3"
		},
		{
			"bufferView":150,
			"componentType":5126,
			"count":558,
			"type":"VEC3"
		},
		{
			"bufferView":151,
			"componentType":5126,
			"count":558,
			"type":"VEC2"
		},
		{
			"bufferView":152,
			"componentType":5123,
			"count":558,
			"normalized":true,
			"type":"VEC4"
		},
		{
			"bufferView":153,
			"componentType":5126,
			"count":24,
			"max":[
				-14.426680564880371,
				6.278846740722656,
				-2.354156494140625
			],
			"min":[
				-14.726682662963867,
				2.2788467407226562,
				-7.354156494140625
			],
			"type":"VEC3"
		},
		{
			"bufferView":154,
			"componentType":5126,
			"count":24,
			"type":"VEC3"
		},
		{
			"bufferView":155,
			"componentType":5126,
			"count":24,
			"type":"VEC2"
		},
		{
			"bufferView":156,
			"componentType":5123,
			"count":24,
			"normalized":true,
			"type":"VEC4"
		},
		{
			"bufferView":157,
			"componentType":5126,
			"count":24,
			"max":[
				-4.426679611206055,
				6.278848648071289,
				-7.054154872894287
			],
			"min":[
				-9.426681518554688,
				2.2788469791412354,
				-7.354155540466309
			],
			"type":"VEC3"
		},
		{
			"bufferView":158,
			"componentType":5126,
			"count":24,
			"type":"VEC3"
		},
		{
			"bufferView":159,
			"componentType":5126,
			"count":24,
			"type":"VEC2"
		},
		{
			"bufferView":160,
			"componentType":5123,
			"count":24,
			"normalized":true,
			"type":"VEC4"
		},
		{
			"bufferView":161,
			"componentType":5126,
			"count":24,
			"max":[
				5.573320388793945,
				6.278848648071289,
				7.645843982696533
			],
			"min":[
				0.5733189582824707,
				2.2788469791412354,
				7.345843315124512
			],
			"type":"VEC3"
		},
		{
			"bufferView":162,
			"componentType":5126,
			"count":24,
			"type":"VEC3"
		},
		{
			"bufferView":163,
			"componentType":5126,
			"count":24,
			"type":"VEC2"
		},
		{
			"bufferView":164,
			"componentType":5123,
			"count":24,
			"normalized":true,
			"type":"VEC4"
		},
		{
			"bufferView":165,
			"componentType":5126,
			"count":24,
			"max":[
				-4.4266815185546875,
				6.278847694396973,
				7.645843982696533
			],
			"min":[
				-9.42668342590332,
				2.278846025466919,
				7.345843315124512
			],
			"type":"VEC3"
		},
		{
			"bufferView":166,
			"componentType":5126,
			"count":24,
			"type":"VEC3"
		},
		{
			"bufferView":167,
			"componentType":5126,
			"count":24,
			"type":"VEC2"
		},
		{
			"bufferView":168,
			"componentType":5123,
			"count":24,
			"normalized":true,
			"type":"VEC4"
		},
		{
			"bufferView":169,
			"componentType":5126,
			"count":24,
			"max":[
				10.573320388793945,
				6.278848648071289,
				7.645843982696533
			],
			"min":[
				5.5733184814453125,
				2.2788474559783936,
				7.345843315124512
			],
			"type":"VEC3"
		},
		{
			"bufferView":170,
			"componentType":5126,
			"count":24,
			"type":"VEC3"
		},
		{
			"bufferView":171,
			"componentType":5126,
			"count":24,
			"type":"VEC2"
		},
		{
			"bufferView":172,
			"componentType":5123,
			"count":24,
			"normalized":true,
			"type":"VEC4"
		},
		{
			"bufferView":173,
			"componentType":5126,
			"count":24,
			"max":[
				-9.426681518554688,
				6.278846740722656,
				7.645843982696533
			],
			"min":[
				-14.42668342590332,
				2.2788455486297607,
				7.345843315124512
			],
			"type":"VEC3"
		},
		{
			"bufferView":174,
			"componentType":5126,
			"count":24,
			"type":"VEC3"
		},
		{
			"bufferView":175,
			"componentType":5126,
			"count":24,
			"type":"VEC2"
		},
		{
			"bufferView":176,
			"componentType":5123,
			"count":24,
			"normalized":true,
			"type":"VEC4"
		},
		{
			"bufferView":177,
			"componentType":5126,
			"count":24,
			"max":[
				-14.426680564880371,
				2.278846502304077,
				-2.354156494140625
			],
			"min":[
				-14.726682662963867,
				-1.7211532592773438,
				-7.354156494140625
			],
			"type":"VEC3"
		},
		{
			"bufferView":178,
			"componentType":5126,
			"count":24,
			"type":"VEC3"
		},
		{
			"bufferView":179,
			"componentType":5126,
			"count":24,
			"type":"VEC2"
		},
		{
			"bufferView":180,
			"componentType":5123,
			"count":24,
			"normalized":true,
			"type":"VEC4"
		},
		{
			"bufferView":181,
			"componentType":5126,
			"count":24,
			"max":[
				-14.426678657531738,
				2.278846025466919,
				7.645843505859375
			],
			"min":[
				-14.726680755615234,
				-1.721153736114502,
				2.645843505859375
			],
			"type":"VEC3"
		},
		{
			"bufferView":182,
			"componentType":5126,
			"count":24,
			"type":"VEC3"
		},
		{
			"bufferView":183,
			"componentType":5126,
			"count":24,
			"type":"VEC2"
		},
		{
			"bufferView":184,
			"componentType":5123,
			"count":24,
			"normalized":true,
			"type":"VEC4"
		},
		{
			"bufferView":185,
			"componentType":5126,
			"count":24,
			"max":[
				-14.426678657531738,
				6.278846263885498,
				7.645843505859375
			],
			"min":[
				-14.726680755615234,
				2.278846263885498,
				2.645843505859375
			],
			"type":"VEC3"
		},
		{
			"bufferView":186,
			"componentType":5126,
			"count":24,
			"type":"VEC3"
		},
		{
			"bufferView":187,
			"componentType":5126,
			"count":24,
			"type":"VEC2"
		},
		{
			"bufferView":188,
			"componentType":5126,
			"count":24,
			"type":"VEC3"
		},
		{
			"bufferView":189,
			"componentType":5126,
			"count":24,
			"max":[
				10.573323249816895,
				-1.72114896774292,
				7.645843029022217
			],
			"min":[
				-14.72667407989502,
				-2.021158456802368,
				-7.354156494140625
			],
			"type":"VEC3"
		},
		{
			"bufferView":190,
			"componentType":5126,
			"count":24,
			"type":"VEC3"
		},
		{
			"bufferView":191,
			"componentType":5126,
			"count":24,
			"type":"VEC2"
		},
		{
			"bufferView":192,
			"componentType":5126,
			"count":24,
			"type":"VEC3"
		},
		{
			"bufferView":193,
			"componentType":5126,
			"count":24,
			"max":[
				10.573322296142578,
				6.578851699829102,
				7.645843029022217
			],
			"min":[
				-14.726675033569336,
				6.278842449188232,
				-7.354156494140625
			],
			"type":"VEC3"
		},
		{
			"bufferView":194,
			"componentType":5126,
			"count":24,
			"type":"VEC3"
		},
		{
			"bufferView":195,
			"componentType":5126,
			"count":24,
			"type":"VEC2"
		},
		{
			"bufferView":196,
			"componentType":5126,
			"count":24,
			"type":"VEC3"
		},
		{
			"bufferView":197,
			"componentType":5126,
			"count":24,
			"max":[
				10.573318481445312,
				2.278848648071289,
				7.645843982696533
			],
			"min":[
				5.57331657409668,
				-1.7211527824401855,
				7.345843315124512
			],
			"type":"VEC3"
		},
		{
			"bufferView":198,
			"componentType":5126,
			"count":24,
			"type":"VEC3"
		},
		{
			"bufferView":199,
			"componentType":5126,
			"count":24,
			"type":"VEC2"
		},
		{
			"bufferView":200,
			"componentType":5126,
			"count":24,
			"type":"VEC3"
		},
		{
			"bufferView":201,
			"componentType":5126,
			"count":24,
			"max":[
				-9.426679611206055,
				2.2788472175598145,
				-7.054154872894287
			],
			"min":[
				-14.426681518554688,
				-1.7211542129516602,
				-7.354155540466309
			],
			"type":"VEC3"
		},
		{
			"bufferView":202,
			"componentType":5126,
			"count":24,
			"type":"VEC3"
		},
		{
			"bufferView":203,
			"componentType":5126,
			"count":24,
			"type":"VEC2"
		},
		{
			"bufferView":204,
			"componentType":5126,
			"count":24,
			"type":"VEC3"
		},
		{
			"bufferView":205,
			"componentType":5126,
			"count":24,
			"max":[
				-4.426679611206055,
				2.278848171234131,
				-7.054154872894287
			],
			"min":[
				-9.426681518554688,
				-1.7211532592773438,
				-7.354155540466309
			],
			"type":"VEC3"
		},
		{
			"bufferView":206,
			"componentType":5126,
			"count":24,
			"type":"VEC3"
		},
		{
			"bufferView":207,
			"componentType":5126,
			"count":24,
			"type":"VEC2"
		},
		{
			"bufferView":208,
			"componentType":5126,
			"count":24,
			"type":"VEC3"
		},
		{
			"bufferView":209,
			"componentType":5126,
			"count":24,
			"max":[
				5.573320388793945,
				2.2788491249084473,
				-7.054154872894287
			],
			"min":[
				0.5733189582824707,
				-1.7211523056030273,
				-7.354155540466309
			],
			"type":"VEC3"
		},
		{
			"bufferView":210,
			"componentType":5126,
			"count":24,
			"type":"VEC3"
		},
		{
			"bufferView":211,
			"componentType":5126,
			"count":24,
			"type":"VEC2"
		},
		{
			"bufferView":212,
			"componentType":5126,
			"count":24,
			"type":"VEC3"
		},
		{
			"bufferView":213,
			"componentType":5126,
			"count":480,
			"max":[
				-14.426677703857422,
				1.2788453102111816,
				2.645843744277954
			],
			"min":[
				-21.426677703857422,
				-1.7211532592773438,
				-2.354156732559204
			],
			"type":"VEC3"
		},
		{
			"bufferView":214,
			"componentType":5126,
			"count":480,
			"type":"VEC3"
		},
		{
			"bufferView":215,
			"componentType":5126,
			"count":480,
			"type":"VEC2"
		},
		{
			"bufferView":216,
			"componentType":5123,
			"count":480,
			"normalized":true,
			"type":"VEC4"
		},
		{
			"bufferView":217,
			"componentType":5123,
			"count":720,
			"type":"SCALAR"
		},
		{
			"bufferView":218,
			"componentType":5126,
			"count":24,
			"max":[
				-9.426679611206055,
				6.278848648071289,
				-7.054154872894287
			],
			"min":[
				-14.426681518554688,
				2.2788469791412354,
				-7.354155540466309
			],
			"type":"VEC3"
		},
		{
			"bufferView":219,
			"componentType":5126,
			"count":24,
			"type":"VEC3"
		},
		{
			"bufferView":220,
			"componentType":5126,
			"count":24,
			"type":"VEC2"
		},
		{
			"bufferView":221,
			"componentType":5123,
			"count":24,
			"normalized":true,
			"type":"VEC4"
		},
		{
			"bufferView":222,
			"componentType":5126,
			"count":24,
			"max":[
				0.5733203887939453,
				2.278848171234131,
				-7.054154872894287
			],
			"min":[
				-4.426681041717529,
				-1.7211532592773438,
				-7.354155540466309
			],
			"type":"VEC3"
		},
		{
			"bufferView":223,
			"componentType":5126,
			"count":24,
			"type":"VEC3"
		},
		{
			"bufferView":224,
			"componentType":5126,
			"count":24,
			"type":"VEC2"
		},
		{
			"bufferView":225,
			"componentType":5126,
			"count":24,
			"type":"VEC3"
		},
		{
			"bufferView":226,
			"componentType":5126,
			"count":24,
			"max":[
				10.573320388793945,
				2.2788491249084473,
				-7.054154872894287
			],
			"min":[
				5.5733184814453125,
				-1.7211523056030273,
				-7.354155540466309
			],
			"type":"VEC3"
		},
		{
			"bufferView":227,
			"componentType":5126,
			"count":24,
			"type":"VEC3"
		},
		{
			"bufferView":228,
			"componentType":5126,
			"count":24,
			"type":"VEC2"
		},
		{
			"bufferView":229,
			"componentType":5126,
			"count":24,
			"type":"VEC3"
		}
	],
	"bufferViews":[
		{
			"buffer":0,
			"byteLength":288,
			"byteOffset":0,
			"target":34962
		},
		{
			"buffer":0,
			"byteLength":288,
			"byteOffset":288,
			"target":34962
		},
		{
			"buffer":0,
			"byteLength":192,
			"byteOffset":576,
			"target":34962
		},
		{
			"buffer":0,
			"byteLength":192,
			"byteOffset":768,
			"target":34962
		},
		{
			"buffer":0,
			"byteLength":72,
			"byteOffset":960,
			"target":34963
		},
		{
			"buffer":0,
			"byteLength":288,
			"byteOffset":1032,
			"target":34962
		},
		{
			"buffer":0,
			"byteLength":288,
			"byteOffset":1320,
			"target":34962
		},
		{
			"buffer":0,
			"byteLength":192,
			"byteOffset":1608,
			"target":34962
		},
		{
			"buffer":0,
			"byteLength":288,
			"byteOffset":1800,
			"target":34962
		},
		{
			"buffer":0,
			"byteLength":72,
			"byteOffset":2088,
			"target":34963
		},
		{
			"buffer":0,
			"byteLength":288,
			"byteOffset":2160,
			"target":34962
		},
		{
			"buffer":0,
			"byteLength":288,
			"byteOffset":2448,
			"target":34962
		},
		{
			"buffer":0,
			"byteLength":192,
			"byteOffset":2736,
			"target":34962
		},
		{
			"buffer":0,
			"byteLength":288,
			"byteOffset":2928,
			"target":34962
		},
		{
			"buffer":0,
			"byteLength":288,
			"byteOffset":3216,
			"target":34962
		},
		{
			"buffer":0,
			"byteLength":288,
			"byteOffset":3504,
			"target":34962
		},
		{
			"buffer":0,
			"byteLength":192,
			"byteOffset":3792,
			"target":34962
		},
		{
			"buffer":0,
			"byteLength":288,
			"byteOffset":3984,
			"target":34962
		},
		{
			"buffer":0,
			"byteLength":288,
			"byteOffset":4272,
			"target":34962
		},
		{
			"buffer":0,
			"byteLength":288,
			"byteOffset":4560,
			"target":34962
		},
		{
			"buffer":0,
			"byteLength":192,
			"byteOffset":4848,
			"target":34962
		},
		{
			"buffer":0,
			"byteLength":288,
			"byteOffset":5040,
			"target":34962
		},
		{
			"buffer":0,
			"byteLength":288,
			"byteOffset":5328,
			"target":34962
		},
		{
			"buffer":0,
			"byteLength":288,
			"byteOffset":5616,
			"target":34962
		},
		{
			"buffer":0,
			"byteLength":192,
			"byteOffset":5904,
			"target":34962
		},
		{
			"buffer":0,
			"byteLength":288,
			"byteOffset":6096,
			"target":34962
		},
		{
			"buffer":0,
			"byteLength":288,
			"byteOffset":6384,
			"target":34962
		},
		{
			"buffer":0,
			"byteLength":288,
			"byteOffset":6672,
			"target":34962
		},
		{
			"buffer":0,
			"byteLength":192,
			"byteOffset":6960,
			"target":34962
		},
		{
			"buffer":0,
			"byteLength":288,
			"byteOffset":7152,
			"target":34962
		},
		{
			"buffer":0,
			"byteLength":288,
			"byteOffset":7440,
			"target":34962
		},
		{
			"buffer":0,
			"byteLength":288,
			"byteOffset":7728,
			"target":34962
		},
		{
			"buffer":0,
			"byteLength":192,
			"byteOffset":8016,
			"target":34962
		},
		{
			"buffer":0,
			"byteLength":288,
			"byteOffset":8208,
			"target":34962
		},
		{
			"buffer":0,
			"byteLength":288,
			"byteOffset":8496,
			"target":34962
		},
		{
			"buffer":0,
			"byteLength":288,
			"byteOffset":8784,
			"target":34962
		},
		{
			"buffer":0,
			"byteLength":192,
			"byteOffset":9072,
			"target":34962
		},
		{
			"buffer":0,
			"byteLength":288,
			"byteOffset":9264,
			"target":34962
		},
		{
			"buffer":0,
			"byteLength":288,
			"byteOffset":9552,
			"target":34962
		},
		{
			"buffer":0,
			"byteLength":288,
			"byteOffset":9840,
			"target":34962
		},
		{
			"buffer":0,
			"byteLength":192,
			"byteOffset":10128,
			"target":34962
		},
		{
			"buffer":0,
			"byteLength":288,
			"byteOffset":10320,
			"target":34962
		},
		{
			"buffer":0,
			"byteLength":288,
			"byteOffset":10608,
			"target":34962
		},
		{
			"buffer":0,
			"byteLength":288,
			"byteOffset":10896,
			"target":34962
		},
		{
			"buffer":0,
			"byteLength":192,
			"byteOffset":11184,
			"target":34962
		},
		{
			"buffer":0,
			"byteLength":288,
			"byteOffset":11376,
			"target":34962
		},
		{
			"buffer":0,
			"byteLength":288,
			"byteOffset":11664,
			"target":34962
		},
		{
			"buffer":0,
			"byteLength":288,
			"byteOffset":11952,
			"target":34962
		},
		{
			"buffer":0,
			"byteLength":192,
			"byteOffset":12240,
			"target":34962
		},
		{
			"buffer":0,
			"byteLength":192,
			"byteOffset":12432,
			"target":34962
		},
		{
			"buffer":0,
			"byteLength":288,
			"byteOffset":12624,
			"target":34962
		},
		{
			"buffer":0,
			"byteLength":288,
			"byteOffset":12912,
			"target":34962
		},
		{
			"buffer":0,
			"byteLength":192,
			"byteOffset":13200,
			"target":34962
		},
		{
			"buffer":0,
			"byteLength":192,
			"byteOffset":13392,
			"target":34962
		},
		{
			"buffer":0,
			"byteLength":288,
			"byteOffset":13584,
			"target":34962
		},
		{
			"buffer":0,
			"byteLength":288,
			"byteOffset":13872,
			"target":34962
		},
		{
			"buffer":0,
			"byteLength":192,
			"byteOffset":14160,
			"target":34962
		},
		{
			"buffer":0,
			"byteLength":192,
			"byteOffset":14352,
			"target":34962
		},
		{
			"buffer":0,
			"byteLength":288,
			"byteOffset":14544,
			"target":34962
		},
		{
			"buffer":0,
			"byteLength":288,
			"byteOffset":14832,
			"target":34962
		},
		{
			"buffer":0,
			"byteLength":192,
			"byteOffset":15120,
			"target":34962
		},
		{
			"buffer":0,
			"byteLength":192,
			"byteOffset":15312,
			"target":34962
		},
		{
			"buffer":0,
			"byteLength":288,
			"byteOffset":15504,
			"target":34962
		},
		{
			"buffer":0,
			"byteLength":288,
			"byteOffset":15792,
			"target":34962
		},
		{
			"buffer":0,
			"byteLength":192,
			"byteOffset":16080,
			"target":34962
		},
		{
			"buffer":0,
			"byteLength":192,
			"byteOffset":16272,
			"target":34962
		},
		{
			"buffer":0,
			"byteLength":288,
			"byteOffset":16464,
			"target":34962
		},
		{
			"buffer":0,
			"byteLength":288,
			"byteOffset":16752,
			"target":34962
		},
		{
			"buffer":0,
			"byteLength":192,
			"byteOffset":17040,
			"target":34962
		},
		{
			"buffer":0,
			"byteLength":192,
			"byteOffset":17232,
			"target":34962
		},
		{
			"buffer":0,
			"byteLength":6696,
			"byteOffset":17424,
			"target":34962
		},
		{
			"buffer":0,
			"byteLength":6696,
			"byteOffset":24120,
			"target":34962
		},
		{
			"buffer":0,
			"byteLength":4464,
			"byteOffset":30816,
			"target":34962
		},
		{
			"buffer":0,
			"byteLength":4464,
			"byteOffset":35280,
			"target":34962
		},
		{
			"buffer":0,
			"byteLength":2028,
			"byteOffset":39744,
			"target":34963
		},
		{
			"buffer":0,
			"byteLength":6660,
			"byteOffset":41772,
			"target":34962
		},
		{
			"buffer":0,
			"byteLength":6660,
			"byteOffset":48432,
			"target":34962
		},
		{
			"buffer":0,
			"byteLength":4440,
			"byteOffset":55092,
			"target":34962
		},
		{
			"buffer":0,
			"byteLength":4440,
			"byteOffset":59532,
			"target":34962
		},
		{
			"buffer":0,
			"byteLength":2028,
			"byteOffset":63972,
			"target":34963
		},
		{
			"buffer":0,
			"byteLength":288,
			"byteOffset":66000,
			"target":34962
		},
		{
			"buffer":0,
			"byteLength":288,
			"byteOffset":66288,
			"target":34962
		},
		{
			"buffer":0,
			"byteLength":192,
			"byteOffset":66576,
			"target":34962
		},
		{
			"buffer":0,
			"byteLength":192,
			"byteOffset":66768,
			"target":34962
		},
		{
			"buffer":0,
			"byteLength":288,
			"byteOffset":66960,
			"target":34962
		},
		{
			"buffer":0,
			"byteLength":288,
			"byteOffset":67248,
			"target":34962
		},
		{
			"buffer":0,
			"byteLength":192,
			"byteOffset":67536,
			"target":34962
		},
		{
			"buffer":0,
			"byteLength":192,
			"byteOffset":67728,
			"target":34962
		},
		{
			"buffer":0,
			"byteLength":288,
			"byteOffset":67920,
			"target":34962
		},
		{
			"buffer":0,
			"byteLength":288,
			"byteOffset":68208,
			"target":34962
		},
		{
			"buffer":0,
			"byteLength":192,
			"byteOffset":68496,
			"target":34962
		},
		{
			"buffer":0,
			"byteLength":192,
			"byteOffset":68688,
			"target":34962
		},
		{
			"buffer":0,
			"byteLength":288,
			"byteOffset":68880,
			"target":34962
		},
		{
			"buffer":0,
			"byteLength":288,
			"byteOffset":69168,
			"target":34962
		},
		{
			"buffer":0,
			"byteLength":192,
			"byteOffset":69456,
			"target":34962
		},
		{
			"buffer":0,
			"byteLength":192,
			"byteOffset":69648,
			"target":34962
		},
		{
			"buffer":0,
			"byteLength":288,
			"byteOffset":69840,
			"target":34962
		},
		{
			"buffer":0,
			"byteLength":288,
			"byteOffset":70128,
			"target":34962
		},
		{
			"buffer":0,
			"byteLength":192,
			"byteOffset":70416,
			"target":34962
		},
		{
			"buffer":0,
			"byteLength":192,
			"byteOffset":70608,
			"target":34962
		},
		{
			"buffer":0,
			"byteLength":288,
			"byteOffset":70800,
			"target":34962
		},
		{
			"buffer":0,
			"byteLength":288,
			"byteOffset":71088,
			"target":34962
		},
		{
			"buffer":0,
			"byteLength":192,
			"byteOffset":71376,
			"target":34962
		},
		{
			"buffer":0,
			"byteLength":288,
			"byteOffset":71568,
			"target":34962
		},
		{
			"buffer":0,
			"byteLength":72,
			"byteOffset":71856,
			"target":34963
		},
		{
			"buffer":0,
			"byteLength":288,
			"byteOffset":71928,
			"target":34962
		},
		{
			"buffer":0,
			"byteLength":288,
			"byteOffset":72216,
			"target":34962
		},
		{
			"buffer":0,
			"byteLength":192,
			"byteOffset":72504,
			"target":34962
		},
		{
			"buffer":0,
			"byteLength":288,
			"byteOffset":72696,
			"target":34962
		},
		{
			"buffer":0,
			"byteLength":288,
			"byteOffset":72984,
			"target":34962
		},
		{
			"buffer":0,
			"byteLength":288,
			"byteOffset":73272,
			"target":34962
		},
		{
			"buffer":0,
			"byteLength":192,
			"byteOffset":73560,
			"target":34962
		},
		{
			"buffer":0,
			"byteLength":288,
			"byteOffset":73752,
			"target":34962
		},
		{
			"buffer":0,
			"byteLength":288,
			"byteOffset":74040,
			"target":34962
		},
		{
			"buffer":0,
			"byteLength":288,
			"byteOffset":74328,
			"target":34962
		},
		{
			"buffer":0,
			"byteLength":192,
			"byteOffset":74616,
			"target":34962
		},
		{
			"buffer":0,
			"byteLength":288,
			"byteOffset":74808,
			"target":34962
		},
		{
			"buffer":0,
			"byteLength":288,
			"byteOffset":75096,
			"target":34962
		},
		{
			"buffer":0,
			"byteLength":288,
			"byteOffset":75384,
			"target":34962
		},
		{
			"buffer":0,
			"byteLength":192,
			"byteOffset":75672,
			"target":34962
		},
		{
			"buffer":0,
			"byteLength":288,
			"byteOffset":75864,
			"target":34962
		},
		{
			"buffer":0,
			"byteLength":288,
			"byteOffset":76152,
			"target":34962
		},
		{
			"buffer":0,
			"byteLength":288,
			"byteOffset":76440,
			"target":34962
		},
		{
			"buffer":0,
			"byteLength":192,
			"byteOffset":76728,
			"target":34962
		},
		{
			"buffer":0,
			"byteLength":288,
			"byteOffset":76920,
			"target":34962
		},
		{
			"buffer":0,
			"byteLength":288,
			"byteOffset":77208,
			"target":34962
		},
		{
			"buffer":0,
			"byteLength":288,
			"byteOffset":77496,
			"target":34962
		},
		{
			"buffer":0,
			"byteLength":192,
			"byteOffset":77784,
			"target":34962
		},
		{
			"buffer":0,
			"byteLength":192,
			"byteOffset":77976,
			"target":34962
		},
		{
			"buffer":0,
			"byteLength":6660,
			"byteOffset":78168,
			"target":34962
		},
		{
			"buffer":0,
			"byteLength":6660,
			"byteOffset":84828,
			"target":34962
		},
		{
			"buffer":0,
			"byteLength":4440,
			"byteOffset":91488,
			"target":34962
		},
		{
			"buffer":0,
			"byteLength":4440,
			"byteOffset":95928,
			"target":34962
		},
		{
			"buffer":0,
			"byteLength":288,
			"byteOffset":100368,
			"target":34962
		},
		{
			"buffer":0,
			"byteLength":288,
			"byteOffset":100656,
			"target":34962
		},
		{
			"buffer":0,
			"byteLength":192,
			"byteOffset":100944,
			"target":34962
		},
		{
			"buffer":0,
			"byteLength":192,
			"byteOffset":101136,
			"target":34962
		},
		{
			"buffer":0,
			"byteLength":288,
			"byteOffset":101328,
			"target":34962
		},
		{
			"buffer":0,
			"byteLength":288,
			"byteOffset":101616,
			"target":34962
		},
		{
			"buffer":0,
			"byteLength":192,
			"byteOffset":101904,
			"target":34962
		},
		{
			"buffer":0,
			"byteLength":192,
			"byteOffset":102096,
			"target":34962
		},
		{
			"buffer":0,
			"byteLength":288,
			"byteOffset":102288,
			"target":34962
		},
		{
			"buffer":0,
			"byteLength":288,
			"byteOffset":102576,
			"target":34962
		},
		{
			"buffer":0,
			"byteLength":192,
			"byteOffset":102864,
			"target":34962
		},
		{
			"buffer":0,
			"byteLength":192,
			"byteOffset":103056,
			"target":34962
		},
		{
			"buffer":0,
			"byteLength":288,
			"byteOffset":103248,
			"target":34962
		},
		{
			"buffer":0,
			"byteLength":288,
			"byteOffset":103536,
			"target":34962
		},
		{
			"buffer":0,
			"byteLength":192,
			"byteOffset":103824,
			"target":34962
		},
		{
			"buffer":0,
			"byteLength":192,
			"byteOffset":104016,
			"target":34962
		},
		{
			"buffer":0,
			"byteLength":6696,
			"byteOffset":104208,
			"target":34962
		},
		{
			"buffer":0,
			"byteLength":6696,
			"byteOffset":110904,
			"target":34962
		},
		{
			"buffer":0,
			"byteLength":4464,
			"byteOffset":117600,
			"target":34962
		},
		{
			"buffer":0,
			"byteLength":4464,
			"byteOffset":122064,
			"target":34962
		},
		{
			"buffer":0,
			"byteLength":288,
			"byteOffset":126528,
			"target":34962
		},
		{
			"buffer":0,
			"byteLength":288,
			"byteOffset":126816,
			"target":34962
		},
		{
			"buffer":0,
			"byteLength":192,
			"byteOffset":127104,
			"target":34962
		},
		{
			"buffer":0,
			"byteLength":192,
			"byteOffset":127296,
			"target":34962
		},
		{
			"buffer":0,
			"byteLength":288,
			"byteOffset":127488,
			"target":34962
		},
		{
			"buffer":0,
			"byteLength":288,
			"byteOffset":127776,
			"target":34962
		},
		{
			"buffer":0,
			"byteLength":192,
			"byteOffset":128064,
			"target":34962
		},
		{
			"buffer":0,
			"byteLength":192,
			"byteOffset":128256,
			"target":34962
		},
		{
			"buffer":0,
			"byteLength":288,
			"byteOffset":128448,
			"target":34962
		},
		{
			"buffer":0,
			"byteLength":288,
			"byteOffset":128736,
			"target":34962
		},
		{
			"buffer":0,
			"byteLength":192,
			"byteOffset":129024,
			"target":34962
		},
		{
			"buffer":0,
			"byteLength":192,
			"byteOffset":129216,
			"target":34962
		},
		{
			"buffer":0,
			"byteLength":288,
			"byteOffset":129408,
			"target":34962
		},
		{
			"buffer":0,
			"byteLength":288,
			"byteOffset":129696,
			"target":34962
		},
		{
			"buffer":0,
			"byteLength":192,
			"byteOffset":129984,
			"target":34962
		},
		{
			"buffer":0,
			"byteLength":192,
			"byteOffset":130176,
			"target":34962
		},
		{
			"buffer":0,
			"byteLength":288,
			"byteOffset":130368,
			"target":34962
		},
		{
			"buffer":0,
			"byteLength":288,
			"byteOffset":130656,
			"target":34962
		},
		{
			"buffer":0,
			"byteLength":192,
			"byteOffset":130944,
			"target":34962
		},
		{
			"buffer":0,
			"byteLength":192,
			"byteOffset":131136,
			"target":34962
		},
		{
			"buffer":0,
			"byteLength":288,
			"byteOffset":131328,
			"target":34962
		},
		{
			"buffer":0,
			"byteLength":288,
			"byteOffset":131616,
			"target":34962
		},
		{
			"buffer":0,
			"byteLength":192,
			"byteOffset":131904,
			"target":34962
		},
		{
			"buffer":0,
			"byteLength":192,
			"byteOffset":132096,
			"target":34962
		},
		{
			"buffer":0,
			"byteLength":288,
			"byteOffset":132288,
			"target":34962
		},
		{
			"buffer":0,
			"byteLength":288,
			"byteOffset":132576,
			"target":34962
		},
		{
			"buffer":0,
			"byteLength":192,
			"byteOffset":132864,
			"target":34962
		},
		{
			"buffer":0,
			"byteLength":192,
			"byteOffset":133056,
			"target":34962
		},
		{
			"buffer":0,
			"byteLength":288,
			"byteOffset":133248,
			"target":34962
		},
		{
			"buffer":0,
			"byteLength":288,
			"byteOffset":133536,
			"target":34962
		},
		{
			"buffer":0,
			"byteLength":192,
			"byteOffset":133824,
			"target":34962
		},
		{
			"buffer":0,
			"byteLength":192,
			"byteOffset":134016,
			"target":34962
		},
		{
			"buffer":0,
			"byteLength":288,
			"byteOffset":134208,
			"target":34962
		},
		{
			"buffer":0,
			"byteLength":288,
			"byteOffset":134496,
			"target":34962
		},
		{
			"buffer":0,
			"byteLength":192,
			"byteOffset":134784,
			"target":34962
		},
		{
			"buffer":0,
			"byteLength":288,
			"byteOffset":134976,
			"target":34962
		},
		{
			"buffer":0,
			"byteLength":288,
			"byteOffset":135264,
			"target":34962
		},
		{
			"buffer":0,
			"byteLength":288,
			"byteOffset":135552,
			"target":34962
		},
		{
			"buffer":0,
			"byteLength":192,
			"byteOffset":135840,
			"target":34962
		},
		{
			"buffer":0,
			"byteLength":288,
			"byteOffset":136032,
			"target":34962
		},
		{
			"buffer":0,
			"byteLength":288,
			"byteOffset":136320,
			"target":34962
		},
		{
			"buffer":0,
			"byteLength":288,
			"byteOffset":136608,
			"target":34962
		},
		{
			"buffer":0,
			"byteLength":192,
			"byteOffset":136896,
			"target":34962
		},
		{
			"buffer":0,
			"byteLength":288,
			"byteOffset":137088,
			"target":34962
		},
		{
			"buffer":0,
			"byteLength":288,
			"byteOffset":137376,
			"target":34962
		},
		{
			"buffer":0,
			"byteLength":288,
			"byteOffset":137664,
			"target":34962
		},
		{
			"buffer":0,
			"byteLength":192,
			"byteOffset":137952,
			"target":34962
		},
		{
			"buffer":0,
			"byteLength":288,
			"byteOffset":138144,
			"target":34962
		},
		{
			"buffer":0,
			"byteLength":288,
			"byteOffset":138432,
			"target":34962
		},
		{
			"buffer":0,
			"byteLength":288,
			"byteOffset":138720,
			"target":34962
		},
		{
			"buffer":0,
			"byteLength":192,
			"byteOffset":139008,
			"target":34962
		},
		{
			"buffer":0,
			"byteLength":288,
			"byteOffset":139200,
			"target":34962
		},
		{
			"buffer":0,
			"byteLength":288,
			"byteOffset":139488,
			"target":34962
		},
		{
			"buffer":0,
			"byteLength":288,
			"byteOffset":139776,
			"target":34962
		},
		{
			"buffer":0,
			"byteLength":192,
			"byteOffset":140064,
			"target":34962
		},
		{
			"buffer":0,
			"byteLength":288,
			"byteOffset":140256,
			"target":34962
		},
		{
			"buffer":0,
			"byteLength":288,
			"byteOffset":140544,
			"target":34962
		},
		{
			"buffer":0,
			"byteLength":288,
			"byteOffset":140832,
			"target":34962
		},
		{
			"buffer":0,
			"byteLength":192,
			"byteOffset":141120,
			"target":34962
		},
		{
			"buffer":0,
			"byteLength":288,
			"byteOffset":141312,
			"target":34962
		},
		{
			"buffer":0,
			"byteLength":5760,
			"byteOffset":141600,
			"target":34962
		},
		{
			"buffer":0,
			"byteLength":5760,
			"byteOffset":147360,
			"target":34962
		},
		{
			"buffer":0,
			"byteLength":3840,
			"byteOffset":153120,
			"target":34962
		},
		{
			"buffer":0,
			"byteLength":3840,
			"byteOffset":156960,
			"target":34962
		},
		{
			"buffer":0,
			"byteLength":1440,
			"byteOffset":160800,
			"target":34963
		},
		{
			"buffer":0,
			"byteLength":288,
			"byteOffset":162240,
			"target":34962
		},
		{
			"buffer":0,
			"byteLength":288,
			"byteOffset":162528,
			"target":34962
		},
		{
			"buffer":0,
			"byteLength":192,
			"byteOffset":162816,
			"target":34962
		},
		{
			"buffer":0,
			"byteLength":192,
			"byteOffset":163008,
			"target":34962
		},
		{
			"buffer":0,
			"byteLength":288,
			"byteOffset":163200,
			"target":34962
		},
		{
			"buffer":0,
			"byteLength":288,
			"byteOffset":163488,
			"target":34962
		},
		{
			"buffer":0,
			"byteLength":192,
			"byteOffset":163776,
			"target":34962
		},
		{
			"buffer":0,
			"byteLength":288,
			"byteOffset":163968,
			"target":34962
		},
		{
			"buffer":0,
			"byteLength":288,
			"byteOffset":164256,
			"target":34962
		},
		{
			"buffer":0,
			"byteLength":288,
			"byteOffset":164544,
			"target":34962
		},
		{
			"buffer":0,
			"byteLength":192,
			"byteOffset":164832,
			"target":34962
		},
		{
			"buffer":0,
			"byteLength":288,
			"byteOffset":165024,
			"target":34962
		}
	],
	"buffers":[
		{
			"byteLength":165312,
			"uri":"corridor.bin"
		}
	]
}
