{
	"asset":{
		"generator":"Khronos glTF Blender I/O v5.1.18",
		"version":"2.0"
	},
	"scene":0,
	"scenes":[
		{
			"name":"Scene",
			"nodes":[
				0,
				1,
				7
			]
		}
	],
	"nodes":[
		{
			"mesh":0,
			"name":"Cube",
			"translation":[
				1.528808355331421,
				4.783302307128906,
				3.0721731185913086
			]
		},
		{
			"mesh":1,
			"name":"Cube.001",
			"translation":[
				1.528808355331421,
				4.783302307128906,
				1.0721732378005981
			]
		},
		{
			"mesh":2,
			"name":"Wheels",
			"rotation":[
				0,
				0,
				-0.08848592638969421,
				0.9960774183273315
			]
		},
		{
			"children":[
				2
			],
			"name":"Node",
			"translation":[
				1.432669997215271,
				0.4277220368385315,
				0
			]
		},
		{
			"mesh":2,
			"name":"Wheels.001",
			"rotation":[
				0,
				0,
				-0.08848592638969421,
				0.9960774183273315
			]
		},
		{
			"children":[
				4
			],
			"name":"Node.001",
			"translation":[
				-1.352329969406128,
				0.4277220368385315,
				0
			]
		},
		{
			"children":[
				3,
				5
			],
			"mesh":3,
			"name":"Cesium_Milk_Truck"
		},
		{
			"children":[
				6
			],
			"name":"Yup2Zup",
			"rotation":[
				0.4999999403953552,
				-0.5000000596046448,
				-0.5000000596046448,
				0.4999999403953552
			]
		}
	],
	"animations":[
		{
			"channels":[
				{
					"sampler":0,
					"target":{
						"node":2,
						"path":"rotation"
					}
				},
				{
					"sampler":1,
					"target":{
						"node":4,
						"path":"rotation"
					}
				}
			],
			"name":"Wheels",
			"samplers":[
				{
					"input":23,
					"interpolation":"LINEAR",
					"output":24
				},
				{
					"input":23,
					"interpolation":"LINEAR",
					"output":24
				}
			]
		}
	],
	"materials":[
		{
			"doubleSided":true,
			"name":"Material.001",
			"pbrMetallicRoughness":{
				"baseColorFactor":[
					0.800000011920929,
					0.800000011920929,
					0.800000011920929,
					1
				],
				"metallicFactor":0,
				"roughnessFactor":0.5
			}
		},
		{
			"doubleSided":true,
			"name":"Material.002",
			"pbrMetallicRoughness":{
				"baseColorFactor":[
					0.800000011920929,
					0.800000011920929,
					0.800000011920929,
					1
				],
				"metallicFactor":0,
				"roughnessFactor":0.5
			}
		},
		{
			"name":"wheels",
			"pbrMetallicRoughness":{
				"baseColorTexture":{
					"index":0
				},
				"metallicFactor":0
			}
		},
		{
			"name":"truck",
			"pbrMetallicRoughness":{
				"baseColorTexture":{
					"index":1
				},
				"metallicFactor":0
			}
		},
		{
			"name":"glass",
			"pbrMetallicRoughness":{
				"baseColorFactor":[
					0,
					0.04050629958510399,
					0.021240700036287308,
					1
				],
				"metallicFactor":0
			}
		},
		{
			"name":"window_trim",
			"pbrMetallicRoughness":{
				"baseColorFactor":[
					0.06400000303983688,
					0.06400000303983688,
					0.06400000303983688,
					1
				],
				"metallicFactor":0
			}
		}
	],
	"meshes":[
		{
			"name":"Cube.001",
			"primitives":[
				{
					"attributes":{
						"POSITION":0,
						"NORMAL":1,
						"TEXCOORD_0":2
					},
					"indices":3,
					"material":0
				}
			]
		},
		{
			"name":"Cube.002",
			"primitives":[
				{
					"attributes":{
						"POSITION":4,
						"NORMAL":5,
						"TEXCOORD_0":6
					},
					"indices":3,
					"material":1
				}
			]
		},
		{
			"name":"Wheels",
			"primitives":[
				{
					"attributes":{
						"POSITION":7,
						"NORMAL":8,
						"TEXCOORD_0":9
					},
					"indices":10,
					"material":2
				}
			]
		},
		{
			"name":"Cesium_Milk_Truck",
			"primitives":[
				{
					"attributes":{
						"POSITION":11,
						"NORMAL":12,
						"TEXCOORD_0":13
					},
					"indices":14,
					"material":3
				},
				{
					"attributes":{
						"POSITION":15,
						"NORMAL":16,
						"TEXCOORD_0":17
					},
					"indices":18,
					"material":4
				},
				{
					"attributes":{
						"POSITION":19,
						"NORMAL":20,
						"TEXCOORD_0":21
					},
					"indices":22,
					"material":5
				}
			]
		}
	],
	"textures":[
		{
			"sampler":0,
			"source":0
		},
		{
			"sampler":0,
			"source":0
		}
	],
	"images":[
		{
			"mimeType":"image/jpeg",
			"name":"CesiumMilkTruck",
			"uri":"CesiumMilkTruck.jpg"
		}
	],
	"accessors":[
		{
			"bufferView":0,
			"componentType":5126,
			"count":24,
			"max":[
				1,
				1,
				1
			],
			"min":[
				-1,
				-1,
				-1
			],
			"type":"VEC3"
		},
		{
			"bufferView":1,
			"componentType":5126,
			"count":24,
			"type":"VEC3"
		},
		{
			"bufferView":2,
			"componentType":5126,
			"count":24,
			"type":"VEC2"
		},
		{
			"bufferView":3,
			"componentType":5123,
			"count":36,
			"type":"SCALAR"
		},
		{
			"bufferView":4,
			"componentType":5126,
			"count":24,
			"max":[
				1,
				1,
				1
			],
			"min":[
				-1,
				-1,
				-1
			],
			"type":"VEC3"
		},
		{
			"bufferView":5,
			"componentType":5126,
			"count":24,
			"type":"VEC3"
		},
		{
			"bufferView":6,
			"componentType":5126,
			"count":24,
			"type":"VEC2"
		},
		{
			"bufferView":7,
			"componentType":5126,
			"count":828,
			"max":[
				0.4277999997138977,
				0.4277999997138977,
				1.0579999685287476
			],
			"min":[
				-0.4277999997138977,
				-0.4277999997138977,
				-1.0579999685287476
			],
			"type":"VEC3"
		},
		{
			"bufferView":8,
			"componentType":5126,
			"count":828,
			"type":"VEC3"
		},
		{
			"bufferView":9,
			"componentType":5126,
			"count":828,
			"type":"VEC2"
		},
		{
			"bufferView":10,
			"componentType":5123,
			"count":2304,
			"type":"SCALAR"
		},
		{
			"bufferView":11,
			"componentType":5126,
			"count":2366,
			"max":[
				2.437999963760376,
				2.5843698978424072,
				1.3960000276565552
			],
			"min":[
				-2.430910110473633,
				0.2667999863624573,
				-1.3960000276565552
			],
			"type":"VEC3"
		},
		{
			"bufferView":12,
			"componentType":5126,
			"count":2366,
			"type":"VEC3"
		},
		{
			"bufferView":13,
			"componentType":5126,
			"count":2366,
			"type":"VEC2"
		},
		{
			"bufferView":14,
			"componentType":5123,
			"count":5232,
			"type":"SCALAR"
		},
		{
			"bufferView":15,
			"componentType":5126,
			"count":151,
			"max":[
				1.6011799573898315,
				2.3545401096343994,
				1.3960000276565552
			],
			"min":[
				0.22885000705718994,
				1.631850004196167,
				-1.3960000276565552
			],
			"type":"VEC3"
		},
		{
			"bufferView":16,
			"componentType":5126,
			"count":151,
			"type":"VEC3"
		},
		{
			"bufferView":17,
			"componentType":5126,
			"count":151,
			"type":"VEC2"
		},
		{
			"bufferView":18,
			"componentType":5123,
			"count":168,
			"type":"SCALAR"
		},
		{
			"bufferView":19,
			"componentType":5126,
			"count":664,
			"max":[
				1.62267005443573,
				2.3919999599456787,
				1.100000023841858
			],
			"min":[
				0.1932000070810318,
				1.5961999893188477,
				-1.1100000143051147
			],
			"type":"VEC3"
		},
		{
			"bufferView":20,
			"componentType":5126,
			"count":664,
			"type":"VEC3"
		},
		{
			"bufferView":21,
			"componentType":5126,
			"count":664,
			"type":"VEC2"
		},
		{
			"bufferView":22,
			"componentType":5123,
			"count":864,
			"type":"SCALAR"
		},
		{
			"bufferView":23,
			"componentType":5126,
			"count":31,
			"max":[
				1.25
			],
			"min":[
				0
			],
			"type":"SCALAR"
		},
		{
			"bufferView":24,
			"componentType":5126,
			"count":31,
			"type":"VEC4"
		}
	],
	"bufferViews":[
		{
			"buffer":0,
			"byteLength":288,
			"byteOffset":0,
			"target":34962
		},
		{
			"buffer":0,
			"byteLength":288,
			"byteOffset":288,
			"target":34962
		},
		{
			"buffer":0,
			"byteLength":192,
			"byteOffset":576,
			"target":34962
		},
		{
			"buffer":0,
			"byteLength":72,
			"byteOffset":768,
			"target":34963
		},
		{
			"buffer":0,
			"byteLength":288,
			"byteOffset":840,
			"target":34962
		},
		{
			"buffer":0,
			"byteLength":288,
			"byteOffset":1128,
			"target":34962
		},
		{
			"buffer":0,
			"byteLength":192,
			"byteOffset":1416,
			"target":34962
		},
		{
			"buffer":0,
			"byteLength":9936,
			"byteOffset":1608,
			"target":34962
		},
		{
			"buffer":0,
			"byteLength":9936,
			"byteOffset":11544,
			"target":34962
		},
		{
			"buffer":0,
			"byteLength":6624,
			"byteOffset":21480,
			"target":34962
		},
		{
			"buffer":0,
			"byteLength":4608,
			"byteOffset":28104,
			"target":34963
		},
		{
			"buffer":0,
			"byteLength":28392,
			"byteOffset":32712,
			"target":34962
		},
		{
			"buffer":0,
			"byteLength":28392,
			"byteOffset":61104,
			"target":34962
		},
		{
			"buffer":0,
			"byteLength":18928,
			"byteOffset":89496,
			"target":34962
		},
		{
			"buffer":0,
			"byteLength":10464,
			"byteOffset":108424,
			"target":34963
		},
		{
			"buffer":0,
			"byteLength":1812,
			"byteOffset":118888,
			"target":34962
		},
		{
			"buffer":0,
			"byteLength":1812,
			"byteOffset":120700,
			"target":34962
		},
		{
			"buffer":0,
			"byteLength":1208,
			"byteOffset":122512,
			"target":34962
		},
		{
			"buffer":0,
			"byteLength":336,
			"byteOffset":123720,
			"target":34963
		},
		{
			"buffer":0,
			"byteLength":7968,
			"byteOffset":124056,
			"target":34962
		},
		{
			"buffer":0,
			"byteLength":7968,
			"byteOffset":132024,
			"target":34962
		},
		{
			"buffer":0,
			"byteLength":5312,
			"byteOffset":139992,
			"target":34962
		},
		{
			"buffer":0,
			"byteLength":1728,
			"byteOffset":145304,
			"target":34963
		},
		{
			"buffer":0,
			"byteLength":124,
			"byteOffset":147032
		},
		{
			"buffer":0,
			"byteLength":496,
			"byteOffset":147156
		}
	],
	"samplers":[
		{
			"magFilter":9729,
			"minFilter":9987
		}
	],
	"buffers":[
		{
			"byteLength":147652,
			"uri":"temp.bin"
		}
	]
}
